<mxfile host="app.diagrams.net" modified="2023-07-27T07:39:22.402Z" agent="Mozilla/5.0 (Windows NT 10.0; Win64; x64) AppleWebKit/537.36 (KHTML, like Gecko) Chrome/115.0.0.0 Safari/537.36 Edg/115.0.1901.183" etag="pVu5V-h6OSZEFVkWqJoP" version="21.6.5" type="github">
  <diagram name="第 1 页" id="a_Tkdf1GFHEabqYbJ195">
    <mxGraphModel dx="1379" dy="788" grid="0" gridSize="10" guides="1" tooltips="1" connect="1" arrows="1" fold="1" page="1" pageScale="1" pageWidth="2827" pageHeight="1169" math="0" shadow="0">
      <root>
        <mxCell id="0" />
        <mxCell id="1" parent="0" />
        <mxCell id="2zejV1CqlXeHGlocq-Ae-1" value="" style="endArrow=none;html=1;rounded=0;" edge="1" parent="1">
          <mxGeometry width="50" height="50" relative="1" as="geometry">
            <mxPoint x="540" y="780" as="sourcePoint" />
            <mxPoint x="540" y="100" as="targetPoint" />
          </mxGeometry>
        </mxCell>
        <mxCell id="2zejV1CqlXeHGlocq-Ae-2" value="攻击者" style="verticalLabelPosition=bottom;sketch=0;html=1;fillColor=#282828;strokeColor=none;verticalAlign=top;pointerEvents=1;align=center;shape=mxgraph.cisco_safe.security_icons.icon22;" vertex="1" parent="1">
          <mxGeometry x="520" y="30" width="40.5" height="50" as="geometry" />
        </mxCell>
        <mxCell id="2zejV1CqlXeHGlocq-Ae-3" value="" style="endArrow=none;html=1;rounded=0;" edge="1" parent="1" source="2zejV1CqlXeHGlocq-Ae-31">
          <mxGeometry width="50" height="50" relative="1" as="geometry">
            <mxPoint x="640" y="780" as="sourcePoint" />
            <mxPoint x="640" y="100" as="targetPoint" />
          </mxGeometry>
        </mxCell>
        <mxCell id="2zejV1CqlXeHGlocq-Ae-4" value="" style="endArrow=none;html=1;rounded=0;" edge="1" parent="1">
          <mxGeometry width="50" height="50" relative="1" as="geometry">
            <mxPoint x="740" y="780" as="sourcePoint" />
            <mxPoint x="740" y="100" as="targetPoint" />
          </mxGeometry>
        </mxCell>
        <mxCell id="2zejV1CqlXeHGlocq-Ae-5" value="" style="endArrow=none;html=1;rounded=0;" edge="1" parent="1">
          <mxGeometry width="50" height="50" relative="1" as="geometry">
            <mxPoint x="840" y="780" as="sourcePoint" />
            <mxPoint x="840" y="100" as="targetPoint" />
          </mxGeometry>
        </mxCell>
        <mxCell id="2zejV1CqlXeHGlocq-Ae-8" value="" style="group" vertex="1" connectable="0" parent="1">
          <mxGeometry x="790" width="100" height="69" as="geometry" />
        </mxCell>
        <mxCell id="2zejV1CqlXeHGlocq-Ae-6" value="" style="verticalLabelPosition=bottom;sketch=0;html=1;fillColor=#282828;strokeColor=none;verticalAlign=top;pointerEvents=1;align=center;shape=mxgraph.cisco_safe.security_icons.icon36;movable=1;resizable=1;rotatable=1;deletable=1;editable=1;locked=0;connectable=1;" vertex="1" parent="2zejV1CqlXeHGlocq-Ae-8">
          <mxGeometry y="31.01123595505618" width="38.46153846153847" height="37.98876404494382" as="geometry" />
        </mxCell>
        <mxCell id="2zejV1CqlXeHGlocq-Ae-7" value="攻击者的ADNS&lt;br&gt;attacker.com" style="verticalLabelPosition=bottom;sketch=0;html=1;fillColor=#282828;strokeColor=none;verticalAlign=top;pointerEvents=1;align=center;shape=mxgraph.cisco_safe.iot_things_icons.icon46;movable=1;resizable=1;rotatable=1;deletable=1;editable=1;locked=0;connectable=1;" vertex="1" parent="2zejV1CqlXeHGlocq-Ae-8">
          <mxGeometry x="23.07692307692308" y="7.752808988764045" width="61.53846153846154" height="55.43258426966292" as="geometry" />
        </mxCell>
        <mxCell id="2zejV1CqlXeHGlocq-Ae-10" value="RDNS" style="verticalLabelPosition=bottom;sketch=0;html=1;fillColor=#282828;strokeColor=none;verticalAlign=top;pointerEvents=1;align=center;shape=mxgraph.cisco_safe.iot_things_icons.icon46;" vertex="1" parent="1">
          <mxGeometry x="714" y="38.5" width="50" height="41.5" as="geometry" />
        </mxCell>
        <mxCell id="2zejV1CqlXeHGlocq-Ae-11" value="FDNS" style="verticalLabelPosition=bottom;sketch=0;html=1;fillColor=#282828;strokeColor=none;verticalAlign=top;pointerEvents=1;align=center;shape=mxgraph.cisco_safe.iot_things_icons.icon25;" vertex="1" parent="1">
          <mxGeometry x="615" y="69" width="50" height="11" as="geometry" />
        </mxCell>
        <mxCell id="2zejV1CqlXeHGlocq-Ae-13" value="" style="swimlane;startSize=0;" vertex="1" parent="1">
          <mxGeometry x="490" y="20" width="205.25" height="90" as="geometry" />
        </mxCell>
        <mxCell id="2zejV1CqlXeHGlocq-Ae-14" value="同一LAN" style="text;html=1;strokeColor=none;fillColor=none;align=center;verticalAlign=middle;whiteSpace=wrap;rounded=0;" vertex="1" parent="2zejV1CqlXeHGlocq-Ae-13">
          <mxGeometry x="145.25" y="-1.9899999999999949" width="60" height="30" as="geometry" />
        </mxCell>
        <mxCell id="2zejV1CqlXeHGlocq-Ae-15" value="" style="endArrow=classic;html=1;rounded=0;" edge="1" parent="1">
          <mxGeometry relative="1" as="geometry">
            <mxPoint x="542.63" y="140" as="sourcePoint" />
            <mxPoint x="740" y="140" as="targetPoint" />
          </mxGeometry>
        </mxCell>
        <mxCell id="2zejV1CqlXeHGlocq-Ae-16" value="任意请求" style="edgeLabel;resizable=0;html=1;align=center;verticalAlign=middle;" connectable="0" vertex="1" parent="2zejV1CqlXeHGlocq-Ae-15">
          <mxGeometry relative="1" as="geometry" />
        </mxCell>
        <mxCell id="2zejV1CqlXeHGlocq-Ae-17" value="" style="endArrow=classic;html=1;rounded=0;" edge="1" parent="1">
          <mxGeometry relative="1" as="geometry">
            <mxPoint x="740" y="180" as="sourcePoint" />
            <mxPoint x="540" y="180" as="targetPoint" />
          </mxGeometry>
        </mxCell>
        <mxCell id="2zejV1CqlXeHGlocq-Ae-18" value="回复（包含IPID）" style="edgeLabel;resizable=0;html=1;align=center;verticalAlign=middle;" connectable="0" vertex="1" parent="2zejV1CqlXeHGlocq-Ae-17">
          <mxGeometry relative="1" as="geometry">
            <mxPoint as="offset" />
          </mxGeometry>
        </mxCell>
        <mxCell id="2zejV1CqlXeHGlocq-Ae-21" value="" style="endArrow=classic;html=1;rounded=0;" edge="1" parent="1">
          <mxGeometry relative="1" as="geometry">
            <mxPoint x="540" y="230" as="sourcePoint" />
            <mxPoint x="640" y="230" as="targetPoint" />
          </mxGeometry>
        </mxCell>
        <mxCell id="2zejV1CqlXeHGlocq-Ae-22" value="预测IPID&lt;br&gt;构建第二片" style="edgeLabel;resizable=0;html=1;align=center;verticalAlign=middle;" connectable="0" vertex="1" parent="2zejV1CqlXeHGlocq-Ae-21">
          <mxGeometry relative="1" as="geometry" />
        </mxCell>
        <mxCell id="2zejV1CqlXeHGlocq-Ae-23" value="" style="shape=image;verticalLabelPosition=bottom;labelBackgroundColor=default;verticalAlign=top;aspect=fixed;imageAspect=0;image=data:image/png,iVBORw0KGgoAAAANSUhEUgAAATUAAAAkCAYAAADo4q2OAAAAAXNSR0IArs4c6QAAAARnQU1BAACxjwv8YQUAAAAJcEhZcwAADsMAAA7DAcdvqGQAABsfSURBVHhe7VwJfFXF1T8vO2QhCWFHBAKERZaAKMhiK4gVwULVr1WrtVbhw4VF+eoCBdSCAoqt+kNxoba1UkFFZBWrEqAqIIJsgbCHhCUJWcm+vO/8z8x9774teS+BqO39w70zd2bOzJntzDkz82KzM8iCBQsW/kMQpF0LFixY+I+Ai6Z26tQp2rBhA+Xl5ekQjrLbkIr97CKpjV0DmtIu8fAg2ojnD9BKoHLEVS/1DcegZdikLPiMSH680QIcJtnrtIpFIzEc9tfCt5kWTu18u9KK44tv9jetqaJexQUUW1Uh8bVC8lfegPF90QIW34HBqnPgCIA+pGkktR93K8X16cfz0STUHnvsMdq+fZvIAAPI067fcDCXHdGY7KbEhkyREJ0Wrl0LCR0tgBBxFm3jfyqx3ZlCfzlp8VIkppzYa8gXg9Kd1kjjjHcCKfAysWLi2/ntiK6Nb512WH42DSjK5XDNgbz4UV/wMJTf4FTBjW8V5ElrzsYEI0eJZMe1zp5EjhCdFq63vnKlNeJ98y1vB4mJ1uR1wq3O7LjyXQt0WrjCN3/4rrPyO/h2p5U4fiuvilAehhHvu846yJPWnI0JRo4SyY5vvhUcITot3IvBt09ak9cJtzqz48q3J8xZO/l2fjtpHSkZyu/g24XWiOO38qoI9jRp155Gbf7G1fzMzeWJKCk1xOugFAfRjhQ6GCGi6ZhpjcIcJTODOlpCTLQSoEJdP40w/Va5mIEv43E6ysVLF8KOC98CfOnHzLfAFGaixWPmW4S4CoVHORwYWV2lPxQtoB0N/tK0RqcJ2HUMGBOMaAV8obuV6wB7XWjZ8awzoPuKXUcpkhYZGPSufeUEf0lA7Xwb+RrRCvgy8W1Esls33/jyUmeG0Bp8m2hdU6HOyhW+AUnLgY46ay/DnVYFfE99JaE/3r4y8gecfSUfDlodosGUEqD5BiQtBzrqrL0MM215dpa4Lpra/fffT0cOH2afjebOm0tNmjRRERYCQs5LC6lk8+fS4r1nz6OYrkk6xoIFCxcbOx6aQBV55ykoLIzGpqZ7CrXDR1iosRhcs2Y1RUVF6RgLgWDnow9SxkcfiFAbtnw1xfcfqGMsWLBwsfHJkGQqP3eGbKFKqHmefkLEmXU6C/UEN6JjubBgwcKlAsSVUzXzcaVDNuUs1B/a4LfWBgsWGh9ehJrIPeW1UC+gBdU2pyXWLFi41HA3Lj2EmhwyaL+/wLac+TGjtrhLhe+jTDNQoir10pZdWVJM5bm5jVpHu72GyzxPVaUl30vbWmh8mOfSD7XPzVx5CDXwrI5j/ceuXbtoyZIltHTpUnUtxISdO3fSaxyHp6ysTIdeWmRmZAo/b7zxBuXk5OjQRkQjKGg11dX05Z230CeDetOF40d1aP1QU1VF1WWlZK+p0SG+kffdbvp0aH/aPuleqqko16H/nZBJzm0mzw9wsqt+LfOrX30BtKfXfUx7Zj1O++fNodIzp3XMDwmuE86L+ckdpX3+Ar9ESEnZTFu3bqWSkhIdqnD06FHavDmFn81UxY3cGMjOyaYULnPL1i104cIFHdp4kNs5l1iw2SsrqbKogOzVNVTVgDpi0B58cT6ljLuBCtMO6lDfqLpQRNUVFVImJs1/Ky6cOEb7/jiLds+YLs93M/6Pcnfu0LHfP6RfFz1HKT8fxf16SIfWAyysj761hE4s+ys/f6OSjHQd8UOCq8TyYn7ybKzHSYGawz5mspc5jpWtvLycCgsLKT8/n0pLWVNwW+3wDUGIuCJOV1xcTDU+Vp1KnuRGXqIRokwv1UC6oqJC+SkYBLC5TORdwRMWacz8BSyMkaVke+kkW3BEBHX938mUNPkRiurUWYd6h521OqOe7lpFNdcxd+d2KjqcRheOHdGhvhHTvQd1nzydOt9zH4X4uMeI/O011frLtfz6QvjWfa/y9z4OJK6OssCPAff28Be53+6g439fSqdWvEvpy5fRyffeoe9mPcYadMMEPXip4fEHTbw+fBmoLi8TIVt09DBr8nX3q08EBdEVs+dSeEJLZk6HXQJIvbnt6lNnmWWmqRaiXVfo07tAUJd+Z+YVQmP79u30+eef0/nz50VoNG/enK699loaNmwYhYaGSjjijx07xkKoiEpKSyg8LJx69epFN988lmJimkle1dz5e/bsofUbNlB2VjbnXUEhISGOW8kGkG7//v20bt16yso+x4KvnGJjm9HgQYNp5MiRctE4IyOD3n33XQ6Po8GDB9HHH38sQvLee++VcgOHfx1Uzppl+vv/pIqCfPmO7zeAYvv0o/QP3qOq4gtk44HVasQoaq7vu+Xv20NnPl3P5p/6bWlJxilq1sOVP0zc/AP76Mwna6mYzVNcTEy4eggVHj5EUZ0TqdOd94hpUpx+gqp40UBblZ07qwWbjcKaJ1BYTAx7VRtCOzu9fjUVHjwg36WZGVRVUkqh+i5jzravKCvlMwqJipaycnft5PIGC4+5335DUR07UeL9D1B4XLyk9xfFp9Ip4+MPqYi1SAjK2Cv6kr2qmqrKS6nbpCkiWDERillzyliziusK/oMoumtXanP9aKlr0ZE0yly9itvRRhGt21D21k0Uk9SDItq0Y54/p3Aee53vnUhRl3dShfqB1iNuoH7PLhJtDXW08xi+wAIkn83z+P5X6lT+o/TsGTHz8vbspioe7zYew8169KROv/4tC5QWOpV/QL+WpJ+ULQWgjPO+cExtUYQlcL9GO/u1LkDJiemWRKFMA76AnG1fUtaWFB5jVdx2CdSRx5KvBc4bsv69mXL4gVBoMfw6imjVmtJXLGMeD1N0l27U+Tf3UUTLVjp13ZBZZppqnkJNpE/gQg002ETOzs4WoWJAzD/OzvjBBAbgxo0badmyZVTNq2Q0T4ognrSHDx+m48ePsUALo6FDh9C5c+do5cqVTGWniPBwbtwgKistoxMnTkp+d95xpzT4tm3b6PXXXxetKigomELDQqiiXP+Q3KSqbd+xg17X+3qRkZEUxhPvxPETlH4yXYTs+PHjRXM7eJAnD/O4e/e3VMBaWlhIKIVz+QEBAyaAJixI3U8HXngOG2VC23zAQOrwq7vo4J8Xkq2GW4DrUcm8GEItY/VKOvrma+xTfdW0fQcXoQaBdvL9ZZS6cB5V5OcpfrhOGR+vlPjY3n1FqJ1auZxSn39W8kZbpT4/T5XJadrd/AvqM3se2YKDhQZm56GXF4mABDDR2o0d5xBqJ/7xNmWuWyV+GwwALu/MJ2vkGyHgNbRZLHWZ8KD0mz/I2f4V7Zr+MJWczuAcmIbHyel1qzmGhVObNtTx9rtlMp3ZsJb2Pj2DyrPOcZQyPjAWj7/zNl0x8xkRNmmL/4RQzgNtQXR6wzrFloAtAl48khe+7DdvYVyXEK57NS+2bW4Yze1cQDlbUyhz7aqAhRqEdeoLz3J/rKBgHmsRrdpQWdZZOvuvDaJpDXz5DZ3SP6R/+B4d5PFUyRYJ+kH16/MS1176da6jXwMCmobzO/63t+g0L5Zox+DwCGp74xgKaXeZSuMHji59jbI2fS59mvvdt1R6OpNKTp3iGDvX+RMZzx1vv0sl9gtgzNlvngcFpshAAdPt1VdfpaeeesrxbNmyRSpvAEIOwgrqdf/kfjRz5kyaMWOGaEKVlVX09ddfi+bWrVs3GjFiBE2dPIX+8IdZ9OSTT1LnRDazePIdOnhIhBME2UcfrWK3QjS9adOm0ixOO3bsWC7TEKO8UnHaj7jMMlbJO3XqJGXOmjWLhg4ZwhpcDe1ggWc+xEA9goND6LZbb6O77r6b2rZtq2P8g2itKNxU79oQx5Og5/QnKIgFuo0Fc9dJk6kNa2YtBg+V+kLj6MJajoFOv76Hkhf8iaITu+oQVxSx4FECLZdaXDOMBr31Dl39+l8pYfAQzo/bRZtIEa3aUuTlHSkYqyzzihUzunNXiuqSRJEdWGsxTXBM4r5/XEBJU6aL6euObg9No/D4FsJ/lwkPUPzVgyS85dBrKZG1IADC25fZ6I5q1h6/m/l7EWhRnbrQla+8QYOXvksdbvklazE8IXn8cGai4eybO4uFQBbF9u1PV7/5d7pqydsUlzxANJTUBc9IvWN79+FcbdR+7Hi6bNwt8IrZfsXMp9lrY23usEOz8QeoBzRXmIptbxzLwmK89BUEUaXWaPwGC+JWPxkp7XTVa2/TIK5nz+kzRPCcY02ypqpSJ/QP0EYjWetU/cQLAAvJaNZYo7t0pUjWmM39GiiKTx6nC6zdI1/07cBX35JxEwhQN7QZFuvzvHAFwwJ7fBZ1vOM3PNZvpPiBV+uU/kFqw3kZ8HpQ4BQHgUDtZRSz0CosKJCngB8IHh0tyMzMpOKSYgriDuvQ4XLK4sEIrSyehRJwPidHNCdoexBOFezfu3cv7d23j7WrUMkHQqeKJ2YWa4U5bLoh8PpRo+jKK6+kzp07U/fu3SXMMKNxAgpzFkGIxzdMTVWmXcxbPGZAoEF7g2natGlTHeonAmy+0Mgo6dAYaFtcL5hcaMuitFQKimhCSZOns5C5XKcmirzscpncGLzeCsvdsY0q8nJZyDSnXk/OoVas4re+bhQN+PMSastaRavrbpB0rX46goXAOxSdhPaCYHqErvn7Cn6WU+LvJvJccw4PTLAWg4Yw/RgRvu6AgA1tFiMrd5sbbmLzL0lYS7hmOJuh14iwq+Z+x0rvDwrYzC3hyQO6nr/nSfCzMdSCJxH2dzrf/Ttqee0ICo1pJmZuGWtoUND6PbeIhcMINg1HiYYWzP1Wks6aOGssTdpgYbKL2RiXzJoU8wEhiPQ21tphQtZU+C88oF3kbt8mfpjeeXt2cZbKhM/+khfyAAH+oFUfYI1tx6R7WMv8C+dXQ3bmKdCDoNY/vV6Ee3Q3NQ+SpF/fl75N/O0El34NBDU8lw889wwVHtgv2wl9571ArbgfgtiaCQSwKuL69WefTRasq177Cy/ak6jP08/RwMVvUQyboAHDNKzqVzsfgEk3YeJE+gNrQXhmzZ5Fw4YO07EK53OUcKlhDemjVato0aJF9AI/W1JSONbG5mOomAAwK+fMmUOLFy8WzW7d2nV06JA6xQlmgRfMgz0/L48q9SrWzos2ZQhnbPZXYrOfZdxnn30mZeJZxeUDwTxhzSYzRGHzhObCR2MhNDqaOtz6SzGxTr3/Tzr53j+o/HyODFBsztcGdy4NTSG4aZRoWAYimidQ/0WLKenhR+Qb9YOWhgUGeUBYhbBpHtKkaf3rzuYd9tSwpSCfMN3h5/y8iTPcdythAWHsDxqAOQjBjglo1gSwAPR8bKZMgNCoaDH/CNofC5QmbdrpVDwW4+MphBcEaM0VuNajC4fQxVYGKgxTD/U0rjAFUuPsr7ZSWTabuwyYYyfY1EUG0NxgggYC7BfuePA+OsVmIxY1CNtmPa9QfAJeFgJYOtBSDRPTDKNfDRMT/VFXv1YVF8t1jdpOtKGdVup9X+zjYrsBfLgD6cqys+QOpTfeDUC5iuqUSFGdu6hv9EU9Ba4ZHjkgY63gBASQYHIkJiZSjx491MOTEcIBsfKnQxjRMdGSFocB9993H82ePZvm8DObBdicObNpwoQJErd8+XIWWvmidc2fP58WLlxAw4YNlzzCINS4LAhRTB7kV2y6SgJNTzjSZULTCkEHcyPefvuvaDYLXDwQmnimTp1KzZqpgwcFRVdfqIETeB5QvZu0v4wKDuyjtJcXcYiNEu+b5DEQMWhkMGHAcJSs6PwNIQDEdO8JJniQZqoDBT1QoQEe/NMC0QIMSN68QCAjHBJgUuIw4ehfXqczG9erRAzkLWU4TjX1t6lcQ3CALyPIxh4H9xJoJCIZ9F/++jba/PNR9M2UiVRRWKBjlOYHIQveIeBxSgtA0B97+0069OfnqYo1P5hVQWxmQXgd++ubqm0gWFavpHJe9ILYtInuipUf5fI4NBgDTF4FjwCvgDl4hk1PqrFT90ceZxNsKV21eClrRNMkPnf711SSmSF+f4DDgfKssxQWG0/JC1+RAwhsQQTxPABceGagjqkL59KmsddTys2jKG/fHh1jAverEhDo16O6X9NUv366QaXRAK9bbx9HKZzfrt9P4XZ1vZYlzYJ+5HHSibXkxN/9r4y/Qy8toqxN/3LhD35s+qeMGcG8XU+ZaCd3cBrUARk7xq58Xxx4ikXmT/6Sa4AAiS8qm8nebde+nQi/Ch4YONns2LEjJSUlsSnaQa5stGjRQoRSXr5aEdAAETxo09mMwOmlrKsQZNxp8bwah7Lqi9z/9emnYu7ioGLjpxt1P6DR7LLfBsEG/lIPHKTLuKwkFpYwRXFdBPEQkgac3NYPXCSXFXgu4S1aUvsx40TzqCrltrhmmJyCmoE9lo3DBtCGgb3oPE8eNPz+556m9Vf1oi9G/5QqWTDgoAF7NDiR2//sU7TlltG0+baxPGhH0pE3FlM2Tp40MOmbsCaE/ju85GXaOCSZNo+/kfbNnUOHXnlB0tRUVtDeOU/Q+quv4ME/Xg4NKs7nyqBdz3zgsAHCEvst0LD2Pj2TTZUy6au0xS9R4aFUySd7awqlf7Bc+gTI+24nP9+KcMv+cqvLxU6Y1tg7RGPiysSmsSNo6x2/kDoemP8Mnf3sEznli+3dTxYD9BoOMlJ+foPUN40nHGixiV3A5lIWl43+Rz0qCnlsMQuZa1ZyPhtl4BYdTeP6vujgzRdwUrxz2gOU9e8U6WFc64AJFcHmI4Qv6lyWk0Vf3XsHFekTx7qAkz4s+pVsfu5+bCptm3A3fXn3/8i1DAijbfffJX4DEOwQTJV5OXJ6nePF3EW/Yi8NdT782ku6X3/G/TpbL5hOnN/xNRXu38eLQK6cBlfksjWlAWGzh9sMfWtjK6r1z26SrY8wVgKwnfDNwxNp71MzHAsnLmRnrP6Q2yBH+vMc2tcE1GPzraNlUUL7ZW/eJGN5w6DecgOgPnDvMQ+hhs272rvVB3hW+KJUk1whLjaOhg+HSWqXKxsPP/wwTZs2jSZNmsRm6Avy6wQIsbZt2ggvB9MO0UMPPUTzF8yXzXyUUM6mCgRfQkIC9e3Hk54HxJEjRyQd8jqYepBCQoOpmrWKKm5s/AklHDrADNrNq+JkLvPRRx+liWwqL1z4PH3xxRfCGyA1MAnhesFoQ6PSfgKC+rJbf0XhPKGxT9H1gakS5gJuTBytw1xAKTj6x0Vc7LtAi8IghKmRPP9FWVUxuLFBn8/CA3HYKO83TwkrAAtE1wemUHzyAFkx5bSUV88WQ4dT3z+qEzNUBPsp1UUXZAOfVwB5sKJjc72GyxXNkcNsWGT4GyeDbNMzbY2YP9gM5sKkDAPYW8ERPjb+EwYPlb1CA6h3j0cfp56Pz2INJpaKT5yg3G+2cd0LKWHIcOr//MsUFhcvJlafZxawZjNFNsYLDx2Q/biQqEjq9sBk6jNnnvAk4HJwWTmEzXIJk6aFqcYLHrRVv7QFO09mdQUGfKNN5eCF86pkgY46gyf0CTeKIqkDza8aJKd92NsrSN1H2Vs2yWLWcvh1XEaIujJi4g31xoJnY00O98daj1R7pGbAgun24FSK649+rVL9ypol9iX7zF2gUynE9kmmppd3lPq0um6kLK5m1OAAhdsH5jxMWFzvUfXnscdjpdr0yxJo19i/DQ4Po9DoKGqHRdoMHgOVPFah7Qo9/8NYrjEd1AUOk4BheP49NfyRSB5Qa1b7//fU1q9fT++//wE14UH1xJNPULt2zr0N7IetWbOWG9km+1jR0dGiHa1YsUJ+ZYATT8zbkNAQSurWncaPH0ddunSRXyngqkZGRia3p4369O5Do0ePpldeeYWCuGGenPGkaHW4R4afZ+3du08mVxNu+JvG3CT7aIbQ7MeCD0Jw/fp1tHbtOjm8QGOGBIeIpjhmzBhKTk6mtLQ0evHFF6mSO+3R6dPFhK4P1N9T+5B9dhq2IvC/p4ZNfgiLiNZtPYVagMBKLxoQd3N4y5YyKL2C42H+QdPCpAnmdmxo2f4AKzzKxD0oX/spmNCl585SDY+bcO5zpPUGXN4sPX1a8sE+XJAI1R8HMA0rud8reDyHs+aGham29pf0LODRT8EsDH3Cz37FOMH+JvYpffWDvwBvEFSwyORk/RIDWij2F7F4ev8jkSzUoEKvboQ/EolTTJxEYlWJi4vzuA8G1nAFBKYhzEd8G4/spZk6B6YnTjBb8sTFXht+HYB0SIO0BqC5oUzEo8xL8dd9dz7yEGWs+oBb0U5D6yHULFiw4D/chZoXkQxB0UDzy09A+OAOWOvWrb1ecIVAgmZnXKkwBBSEnPtqg43+9u3bS56Akc4s0ACccqI8lHup/lw5OFPGuOeKaMGChYsLSCvzTPMQapAVjSPS/rOBjXerJS1YaHx4CDWRem5akIXAIALNkmcWLDQKsF1mnm6e5qedo60J2SBIE1vrggULjQJ3ceUp1MT8tKSaBQsWfhxw1dO87alBqllaRsOANrbWBQsWGgUy1Uwyy1NTQxK1y22hvkDzWU1owULjwSSzfF6+jYqMlDDR3FjQqesJuPclYk9exnmC+tYfjtv4TAkvXhwnXuOmPb8ktSkv+eB4hOON3wwakG+dL94qX3da/Ff5q6QqJ/Ey3Pk2/Cqd4SDAnW+3OsN1p9e8wQ++f3L6OHUpUD81wSVKXAJFCk++GSBnx4jXSZzROr1XWgCJAR3mjRYv+OGRFnYk0C5DV9fJA3uMtJLM9C1AWnYkrUFjfCOAv4w4B5m8GLXQAu58G34HkFhD6E3ELrQSEFidkUDeyqvI5MVAWnaMeJ3EGa3Te6UFkBjQYd5o8YIfnoD5ZkeS8fdF6yuGuV46iSPanW/D7wASawg9fwu9W3pJxgnq01f4hQ1+2YBfM3hcvsVPlVJT1e/0DCBfRwLAI4DhLcwbfNECOtxnVqYIh7cWWo983APcaGuFR2aMWuhH5Z6hXsX6x9kB0taJi8F3Q2iBuugbQgu40zeEFvCXviG03nAx+G4ILVAXfUNoAXd6f2gNmoaU7YU2mBWIMXuOugq1TZs2yU+O8Pf7A4M5d4MrA4hzDzPDiGfXEOMO1EUL6LIlaV1p3aFpBe60dZVtxLPrxnfb8lL6Sf45aobft+kwwFmab1od6oARZaJwvFWgk7ihtAiUlZLhm1Z/efDtSQsoOgP6S7JxpoLPnM6IkWTarY0WgfXhWzn+8A240gLwmtMZUabSHG8V6CRuKC0Crb5SAEVI06byNwATfzvRVahZsGDBwo8dXg4KLFiwYOHHCqL/B6I0sWoMZ2nwAAAAAElFTkSuQmCC;" vertex="1" parent="1">
          <mxGeometry x="360" y="219.99999999999997" width="179" height="20.85" as="geometry" />
        </mxCell>
        <mxCell id="2zejV1CqlXeHGlocq-Ae-24" value="" style="endArrow=classic;html=1;rounded=0;" edge="1" parent="1">
          <mxGeometry relative="1" as="geometry">
            <mxPoint x="539" y="280" as="sourcePoint" />
            <mxPoint x="840" y="280" as="targetPoint" />
          </mxGeometry>
        </mxCell>
        <mxCell id="2zejV1CqlXeHGlocq-Ae-25" value="请求attacker.com" style="edgeLabel;resizable=0;html=1;align=center;verticalAlign=middle;" connectable="0" vertex="1" parent="2zejV1CqlXeHGlocq-Ae-24">
          <mxGeometry relative="1" as="geometry">
            <mxPoint as="offset" />
          </mxGeometry>
        </mxCell>
        <mxCell id="2zejV1CqlXeHGlocq-Ae-26" value="" style="shape=image;verticalLabelPosition=bottom;labelBackgroundColor=default;verticalAlign=top;aspect=fixed;imageAspect=0;image=data:image/png,iVBORw0KGgoAAAANSUhEUgAAAQgAAABwCAYAAADi8O7nAAAAAXNSR0IArs4c6QAAAARnQU1BAACxjwv8YQUAAAAJcEhZcwAADsMAAA7DAcdvqGQAAD4vSURBVHhe7Z0HYFRV1scPvffeO0iV3qSDoCgg9nVdFSu2tSyu2MXe1t5xVVBXQUGa0nvvEGqoIYQEQksg9ADf+Z03L5kMM8kE0E/C++uQmfduv6ff+97NdlohHjx48BAE2X1/PXjw4OEMeALCgwcPIeEJCA8ePISEJyA8ePAQEp6A8ODBQ0hkehXj5KlTknDgiH0vXDCv5MqZw757+HNw6tRpOWVTdlpyZM8u2bJlc24EgGklLf9l0/9y5Lj4dAFjAL2C7DpW2UOMlYfQyLSAWLYmRh5/a6wR3YA7O8pVHev67nj4MzB22hp5b+gc+/7cA12lc8ua9j0Qx44ny2NvjJH1W3ZL5XJF5cNnr5HCBfL47l4cWLwqWgb+Z7yKSJF7bmgpf7uqiXPDQ9jIlFo5efKU/DZznRw+ckIOHTkuv89aL8dPJPvuegBJh4/JtAUb5a3/zjBher5xIvmU1nHc6jlxwtGOoXD46AlLd1A/p3ya9GLCSbWg6PshHS8EpofMI1MCYr+6FjOXbFW7w/m9ZuMu2bRtr/MjCDDvjh5Ldoj0kE6UChUmCtM3EBgyx0+cVOFz3NKS54gSeHLySbvnpjmhv0lH2ZRDGvIgvFw49TrMAXEgxEIZSjAObSKd20baHMhQ5KfcY1oWdbp98S+Xtv0+c7089e54GTFpleyIT7S2ct0/HV+5dvioUyd//dvvD/p4VOuhL3xOnDypwx+8L4GwadJ/+Ev9bj+P6Ni4pjfX3TF1x9UfjIN7L5SQoe3cT9a//vWc0GsucIvc6/SD+fEfExfUgWDzpwHKD0zrXw/p+O64Xv7wdymc77TR7Y/bXhd8d+/5zxl/6ItLm8Hmi7SkIS/fuQ+N0P4z23XhIGwXg2QjJ6+SN7+aYX5vdh1vJPStvZvKw3+/LI0vTNro2P3y/djlsm5rvOzanaQDlywF8+eWUsULSs3KJeVf/TpIvry5LC2DOGneRpkwJ1Li4g9IwoHDkjNXDilWOL9UKlNEruveUC5rWk0nLVne/Xa2RO3YJ7071zdm/UHrOKbE9kz/rtLq0iqyc88B+WbkElm1MU6/J0ku9b2rVSwu1/doqOZ4Dcnpi5lQ7849B+W70UtlzaZdEqffj6lgyJ9P21gsv9TQNtKv4kXzGwFOnrtRlq6NkZ17D0pC4lE5cvyElCpaQHq0ryPXdK0v+fLkkuc/mqhlxcv2nfu1AjHTvlSxAlKmZCF54q5OUkDLhvAWRWyXYeNXyrbYfbIv8YgUL5JfmtevoGPZzNrqtE/03iEZOmaZLF+7Q2LiEmxMiPns3neIFPLKI1dI98tqW/pAwDD9XxxhfStfqrDcfFVjmaJjvH1nohQtnFdaNqwkd1/fUuckj7w/dLZs9An6bm1q6ng30vm0nzJJ52TklNXKXtnk9r7NpLWOcSB+mRghU+Zvkno1SkuHFtXl/SGzZefuA9JX5+3eG1rJAWWqMeoaTV+4WXbsUqGpY1C2RCFr+009L5X8eXNbOYkHj8qQUUtkxqLNsifhsOTJ7dBAjUolpP/NraVK+WI2LjDouBlrZZLOSczOBGPASmWLStsmVeSmKy+1PkGPC1Zuk3++OlqpPJs8oPnv6NtCfp28WibO3aCXTsuldcrLvTe2svgE2Kp09bZafgjlOtVKyYO3tLV+z1+xTYZPXCnROgcoyRI6X4zfrb2aSmVtE4jVfr3zzUxtW7K63h1MQcxcvMXm/60BVxkNXIjI8aLC9z1dJKtp+55O/O79SVKuZGEpX7qITuIhm9SuSlTuJIO1m3fJg6+MkpXrY2VvwhFlZNUCyafl8LHjsmf/IYncultuUX8wrzIVDPPal9PkW2XqOGXuJCUmk/LHT2rZx5SgE0yotGpU2aTyt0pAEZFxsnn7XpkOIWl5SOoblTCOKOHc/9KvslRN+/3KxKqPjFHidh+UucujpIISEcQG8UTt2C8PvDRSFq+OsTKwGqgXYQVxwjC9OtdTAs2nRJgoA94ep9f2yC4VOgeSjpo22a35Fq6MNgavX7OMfPLDPGuvaSv9/4C2nz7Rx16d6kluZfAff18hrw+eZgIUVy27SlrGcEPUHonQ8WrXrJoUUEEavy9J/v3Ob8pUm2yc0UwIMOp10aV1TRVkJXy/0oKxGjtjnbURl4R27lLhhubef/CIWn/xJmgvb1tb6zokP0+IsHEiPYybJ3dOE6If/TBXffntNkb3K5MVUOYLxOT5G5VZN0jMrgSdky3KSPvN6mmhTFSrSil54eNJxjDxe5OMjmjbXh3jJTr2aOTLmlS1ur78eaH8b9xyvXbUBAFp96uyiNKxuqFHIylaKJ/N5+tKL9+PWe7rT7JeO2njtWxNrNFeZx0XBGmMMu2E2ZFMhbWlcd0KVs/3Y5fZ/G+I2i19uzU0OuQ6Y4ALjWJhXBrVKSdDVIG89fUM2R6X6MyX0k6Cztd6peFVakF30PlCqcTr+Px3xCJr6+qNO2XO0q1GSzlyZDNaz50rpzNYFxjCdjFgyDU6+KB5g4pSv1YZ+75dpeqK9XH2HTDQ7w+dYysdDE77ZlXl2f7d5OFbL5OKZYuYZnVB2nkqnSGu0yrRyxQvJA/8ra1ZA1eqZiZ/KKA5YLg2jatKVyWIMqqRPhu2QBn4oDFd32715b0ne8uTd3c2Joew0B78pd5Pf5qvBJZkwgLieVbrfOz29krQJX3WaGpD0erN61eUjqodH9U0rzx6hWrTFkaErBLMWrLFGLh3l3rStF4FX/5s0rpxZbm5Z2ML5NJWiPJ/SpwIDITKk/d0kvcG9pZrL2+oqbOZAJq7fKu171e11tZujrf6sbieuKujjks3Hfeydi0cuN2gvCoVikn/m9rIbdc0l4L5lMl1vOcsi5JIZZLOrWqowFcNp9do4zrfPCMMEeaA/pfWMQ4OrUQrwxpCeDaqXc7mBKE5ed4Gmb98m41m03oV5fXHr5Q3/9VTLqlW2nKOnb7WhAVuz7I1O2isFCqQR56+p7O8O7CXzl8XsyDLlSpk/ZivVgFlMu5YRo/8o52NDYKfdiB0xqlgdODQjzOTzvdLqpeW1qps+H1IGX6KCjeAqzIL91kTVyhdWDqptblJ5+On31aYoCqplgB0SZtQHJS2bssuWajWIHBKV2h+xqy8loGgateselCheqEgbAHBoGN6wRQdW1ZXonKkNObdhNkEKx1/E+kaERlr36tXLCGDHu6u7kA9c0XQJs5kpWKuSlrKzamuACbdHX2bS58u9aVP1wbmHoRCPrVYnrmvqzJYLyW6npJbzdFlaoozU5ii993UWurWKGPthLi1mUrwB8zcRWthtoPSxQvIa49docxd36LcDVVr0MiUCVcgRDDnn7u/m3RoXl0FRgmd+KoqlApaWpgCF+p2ZT40j/ptNrBXqJB77PYOdh0ttWbTTtmTeNjy3HBFI2WiWkqwpbTexkpEqsU0z8aovSbEYF4YIm/uXPLKP3vI9Wr2I4CuPotVo0JKoANVUPa7roUK4DZydSctQyuDyRAGLFczRyofrB9T1WphXiM2xEqi9o3RuLLDJU5hwUDDGWAFffn0hWt1THvauGOeq6dvbbjnxpYmQBvXLa9zrPWpIMea2KLKJ3u27CpEs1tR0NIWtW7QzFe0qy0D+nUyDcx4zFQLhbZBew/+va38Xc18rAuELS4rmKhukQunVcD5hvK4TtPnzeNodJeuN0bvkc36IVW3trVsblduiFN6dpb0oY1OSvd1q5dRoa9uUT6tSxNv2uYIUAcO1ZRVd+KLQdfLG0qX/1bX8kJGWAICsxapTfeR7mi/vGqCMhBgiZr0sfGJ9h2Lwp2U+jXLmj+YAr3hDKHzLzSF6cZP0tVVHzYQTko/+AovUSy/mYBMOCCecFwZC8Sr6fngy7/KvS/8Yn74gohtVs4xJTwIEv/YDaDVVY1SpGA++w5g7kCg3Yi/9B80Uu6zMn+Rf7/9m1kgIL39CP6Ijk1I6Q8++X0vjJB7nx8hT6j7cljrALgACQeOmtAhbVXV/OVUU6YpX79mXFsqihXJlxLboJyGtcs646ZdxezHbCaWUqxofktDjASXYq4KqZMnT6tpn8f8+9DA/nHahJUF8wLGG4uO6/TrjcHTrb98cBVheEb76PETxrAtG1WytuBKEVt6SOfw4VdHyTQEljIxMa/Y3UovmqlQwTwWJ3BRv0ZZKaIuCGCcKdsf/r+gmyYqpEBkVLxaajuVvjdaHcV1rK5oV8fGiXIM2oERkyKctuv8P/3+BKWJZOvXYW17Cnx1NlQLqjTKIwsgLAExW00vV5JiITz+5jgjagKCjBLm2dQFm2xS0H7qL9jg+Xg3FfrbGcLU6SLQ6KYPxmRpp1lhCX1//NJDyJZWy0Lr5ldtkl+1Nn+rlCsmDZQpMHEJFB5XkxGtBgLr5Cqt8a936Kil8tlPC0zDlCxWUHpcVkfdkormp4NcObOrkHDK4V83byCR4lq4NwuomY8Won0FVejWV80E49arWdrGxNIqYBxXCALLbv+kbXeG8EuOkHSbhpYGBA27qUUD4lTYY9mtVh+bytqr1USAOT1QHB//8aT/xHW4wUatAmr1uX0mrtSgZjlpqC5ThTJFLd/fejaR2/o0k1I+5sKHX71hpwz6dJK6sY7F544LggTB7IIxcqt20xiCDBPWKsFR5g26mTh7gyxd7bgK7ZpWU6HsCNOUcrT9KDDajZVSWL/jPkFTWBQp8NUVQFIXNDIUEBDSmBlr7e9p7fkpHdD9aiYTzWVNHjAeSGCCOP6Skwg6EWfASgBaKQ00Y2klFMD9yC2Ozw2IdhtxBYNRovvFQUm1KHKr5mJyCNx99Mw18tGz+vH7+9z9XVMsINwXilindVI3QMuhUa1cK99ZZvx91jojdgKx7z3Zy1Yk8H3RNiCXmr9uJNxapHkxgxkPf5RTv1TllxX9jz5NU9r2sV8bca0KKtPaCo+mZBxoF6AtuEnkd3qe2v/MYMX6WOsPLanqi8LDwPjWCAJGfYRaTHsTdL50QDHz3f4FR2o7fMNmwJIoob47fS5SKK+88ODlqX22Tx/54Ok+Us3HkAjK+25uLV+/cqO5dMS6KJBAJNYMQsCxWrPJwaRjFhB0QSCZYCz3KpVzBI7bLr5Rhj9aNqycwtyzVBjG7DpgwhJX0xXIxBGcbyJ3qnsWOFd8evq7XnTU4P698JGhgNgas1dWqS8GqpYvKh89p4P0XF/7vKvMwvIS0xAVs8+WFgkmsbQD8OuefOd3+eC7OfLIa6MtumvwjR9/kMJMJMLmvaGz5b0hs+SFjyZZHqR7SKRMhgOYvrK2D7qHAUarCQ/B4B4gqL4eudhWSCCcUsULSFk12ymdSPjjb46Vj3+YK4+9PlZ95mi9qmX7qoaR3PgKJvPvs9fLEtU2LLcSJQdGiz4QjHTsIYTmBpm3PMoCYWijOlVL2XIoRbO8um5zvPWbIB1pxkxfq9oth8UEShZlDE9bdJy2rdGxw9QeMXm1lU3AAJM7HLDKs3xdrMVAhqg1xHIyKFYkr1x6iWNqg+qVilvQlwYSMMXtQYAQy0kXOgBun/3BWKBpKS9+7yH5bsxSc8uw4FhupS0Ev12GHK9j+/OElXLg0FELJBLvITZBfuaAuWuljM0F5uITHZfZS7dY7AnaYfWDey0aVLLyDJqXUSJQyooQS5kAK+KWq5uYJRKHy6nzQ2zE2usDgVTXSvx6xGIbE+aLVS6WSsfPjrT5SoXWdOYwXNDIcJmT9folq3cYE7Du27NDXTUJi9gHSY3LQcCPSYBeu7SqaVp6LsEpvYAGRMCgmdFSaFYS/6N3M9OSEODspVGSmHTETMpValJuUsGSfPKklcl44zPaMuepU7b+zT4ANBLSnuAfYKJLqA89FWZUy2NRRIzFDYYrwWEBIDTQUE3qVrB2oP1ZfUAIISRWro8zQmHlxN0PRPCLfRAE8raoAKTtLPlNnLPBlim5h4VURBmagCSBtMNHjsm4mestP3smYHwIGGJnhWTz9n0WlCPiz+oN6+ssAc5YvMUERhv19TG/Ya7ZBHC1Tpbj2LWKG4d7gKZjGbiV+uz1QjAv6QjAMVYIyRkLN9sS3qKI6BRme/yO9rYXwNG2TiyliPr2LFsyd+AaHeO2TaqmpAmGhVpmhM4bKfp0a2DtB+SpqO7DtEWbzUqDwRCCwyeskFFTV+u4xEh0XKJc3ameWUmsfnGddg8bv8JWuOgHVd9zQ2tVRkVs3wErFbv3Jck+tWKnLdgs43VsmA9ajAX74kOXmyBm+RhFAVgqZlkcN4dVK0B5tA1rmPFmpc11LwB7F9arhbktNsGsKYKfw5UfmC9WPJiv9s2qSdHC+ayMsUqbLLmyh4Yl6KyAdC0IpOqMxZvVhFb/UX3mHu3q+O44gAC6qkBgCYgBJmJNPKJXl3ry2fPXWuS9TeMqFtkfeE9nW+9287lAW3718vW2vElUnzREiZ+8q7Pkzc0yIumdtCCPMiF1uYEwf5D37Seusn0aKgNsQw7MwOYoNlqZyeoDy1iDtV72T9BG6n70tvZyZXtMRq3Vr87H7+hoDI4LY0ykwunxfh1kQL+O5l6gUdDS4FIVQATqchKXoOFaFN+xZhBMT9/XRf6umotYCHEQCAohhXDr3bW+/nWsLwjsn7e2M3+XOmFY8rzwYHcza3PpGCQdTuvC+AOtjPBAeDmrQc7DW7SlpgoqVn96daqfZi5Ag1rlbJmSdjPO7IlITzgAVh/40CYEtT/KlCwoHz7d28aeOcNtpM/4MbXUourV2VmVQfiXKJrP4kcIBUujbWBcGH82JtEO4gDvP9XLVnQQAnL6lAlRVrHaN68mXw66zvZLgKoVi0uz+o5CQPDTtISDh33uFfOSQ/6hSo9216la8oxNYFgZL6iwufGKRqbMqMcC3TqObKZjgxzCATDelIOSYIyzCsLeSZkZMJCsFGD2Q2RwGwHNR14bo9J4v+1L+OX92ywSDZxlwpPGeEwKZtxQNcEHD1+oNHLaGBdzMFzQJTb87Nx90MrE7Qm2UYWVF3bqQVyYyPsSD8sAdTfWqtYoVCCvDH3jJrOUAGXixyIIjOm0X1xzzXyClC4jwYhsQsJKIDZSoXQRS+8PlhNj4w9Y39l0BiMEY0Q0K5uvjh07qQRfzIJlbEemWogykCEDwRo+2g8Nh9Bj7wAWXmBd9AXmpT0EoAlQtlbB+faAnmpmO1bauYDyWV7eob5+dmXWitpnApb+7dAk5iYwd6RlnMvq3JkgCAIC4qya0e5K5bQ8tQ4C+4WS2xy916wo4l3EMBAYLhBMWBqsyrkB22BgvohzMP/EJqDtYPOV1fCHCAh2NN78rx/MOmCZjoGMUBM+llUPrY1NNC/9s4dpFKr/fswy808b1CprDMvuQ0x+JhcB882rN6m2Kekr/fwAJr5lwA+2Fs9+DSLaxCq2xTnbpHFp2CLrrq1ndbBdHRN/2boYiYrZLzl0PF5/tKftefFw8eIPsYXw2diuyo4y/HWWkWLZ4ZhNzVv1z+69sXWKi4A5uWzdDklQzcXmIGIM+JjEIArlzy13XddCqldO9QvPF7AeYlSDo12mzN9gPj7WDRrZ2WjV6qIRDoBY0mQdh6iYBBOa3drUsn0JHi5u/CEWBNuseVCFffGYbwgB1rZrqxXQsUUNczFcoMlZ42bLKg+8YApi6lVU057gGA8Apb/EdnYgaEaQkqAo7cWtIZbCll12zLmBtosFPPPAqgJuUb3qpaRnx7pmAXq4uPGHCAgPHjxkDWSdcKsHDx7OOzwB4cGDh5DwBIQHDx5CwhMQHjx4CAlPQHjw4CEkPAHhwYOHkAi5zMlGpXnLtsny9TvEfXgJuJtLnUz86zzH53zzh5si9Wpm84LA/MHygmD5z6Xuc8sL0uYPlhekpnKv8C1tXuC87cLJC5xf/nDy/3/1GQTmD5YXBMv//9Vu59+0+YPlBamp3Ct8S5sX/NXnKnfunPYC5zrV2GOUNkUgQgqIxau3y+Ovj7VnJHyvYnFqc1Pbd/8L/qCBznX/uympQ2VLgZuffwMSBsub5lqQvO79YA3IKK8ibbY0GQLg5A96N1i2MOo2BOQ9sxnp9BmcmSENuAP876akDp3Nh/DbbUhzLZ12Z9iA4PWmzRYqL3DyO4wWkCZYtjTXwu+z/cwor//9MzOkAXeA/92U1KGz+ZBaN28Z+/m9W6VQBpvhQroYBw4elWPJyWfW57bQkPYuz644z69o1/Vv0Lx8gnQiNS9Ize9esnt8guTlWnp5DW5eu+hXSIi8acB9vzT+CNZuf5zRbv/7IepOucQXPmc0SBEibxqk3Adp7/q3O90+B6nbPy8JAttt9/gEycu19PIa3Lx2MW0hwfKmQZqCzswbmN8fZ7Tb/75eS7fdfOFzRoMUIfKmQcp9kPauf7tD5uXj3vClBf55SeDm56VPyb4HDdNDSAuC9yo89d54+445wtZbp2i/2lMQWARpAtOeS14Q6logguUPlhcE5v8r5QWhrgUiWP5geUFg/vOdF4S6Fohg+YPlBYH5/0p5QahrgQiWP1heEJj/3PN++P1cezqYFxRP+OqeNI89BEOGAoJi/9GnmTz098ucGx48eLhg0e/pYbJ2U7yJj4lf3Z2hgEh/FUOlQ1Dp4cGDhwsYcHV4nJ2ugAhmuHjw4OHCBe9myYzST1dAeNaDBw9ZC6f1PxR/uMo/fRfDkxAePGQt+Hg6XNbOMAbh+RkePGQdsORpwiFMvk5fQADPivAQJnhzGMc02nkkR0O/cftcwbtKOaH7xU8m2ZEAHsJHyg7MMPk6/SBlFhcOvKGY06157V0guMZBO7ynkndr2vkSSvSc88Hbr4HLELzqn7dPuyvGnPvJNffjnCiuc6L/8J16U+7rd96s7A//cm0nq99KNN95w7Kblzc6k99NH+pD23nb+B+Jz4bNl253DZau/T6Xa/85xLbr/xE4kHRMhv2+Un6fuV7mLo/yXT03MM4IG/cUs6yKbEYD4bsFYW2U4rzErLYPgpfWPvvBRImOS5DRn9xhZ0644H2Vv0xaJaOmrrFzKtl+xmvta1cvLVExe+1w1g+e7i3fjFwik+ZtMCblIJ4XH+xur9h/6t0Jsmn7HiuLqahdtZQ8fW8XY+g3v5oh0TudN2cDzmvgfIq/92piEWYE09cjF9lRhpTLwUKcKu6ev7AnIUle+WyqxMQl2uvjOSODsyJGTllt79WkPndCXTJAaxQqkEsGPdzDzin9o/D6l9PsYBwEXIH8uWXCl3ennEx1PsFr/G8fOEzi9yXZYTccwnSuiNmZIH8b8D97mzlnuPB+0qwI9kGs2cQRl6dlYhgbpTJ2MbIgOPvhuQ8n2lGAHNziLxzQxO98PVM+/2m+xKm1wAtzCxXIbW96Xrtppx1Ht3t/km1TXaX5t8bss51pKyPj7Hg/NPXi1dHKwAl2nXMbeHnvQRU6nE3BkfqcGh2t9xBOW2P2y5DRS+ykKMCZF7xI18rV+5yuxQlcyHE+42dF2olT5I/asV/Ljtcyd8nW7fstPZ8dOxPV0qH+ROcT56TbG3g26nnGg7e0lU4tUl+Tn1l7xe1jRuBluhxcxIcDj84HSpcoJB2aV5PZS7bIO9/MNDrImnCexwjXhgh59B4EylFvFHjpJeWkpUrWrAA09BfDF8i0hZuN0Dgk1j2YBeIcPXWt/DBmmaWrULaI/OuODqrdm0nrxpVl5fpYOazmOtr85isb2/HznJlphxLriG/TMWunRMbWdA7U2bRtr53y9PR9XaVO9VImrS9RawIzFuZG86P1cUkqlitqJ2EhkOqqpbJGhcoedWuYSIQSlgKa+dMf58uuPUl6nXkpL0/062ivp9+ils2O+IPWtpcf6WFH2HdvV9tp97o4O1K/V6d6auEUtr5mFpyXiVX5m5r1HOaMELOT13Qc56/cZm3nQB6OWWRMOF2qfs2y8svECDtzk0OCOHAm8HAa6Iwj7UapBUTZ05Tm1m3ZZWODFvc/GAjhydEIfGgPB0ljgXE+rD8YXyy7BSuizT3Mq2VxTiptWbomxua7TImCZrG54DAdDjjiqMRN0cxbXqlfq2yaNFkBo9UqdpXRrRx/GeJQIhfpxyD4ZLFABOdicvYj/njvzvWUafP77uBaHLfzK0+ePiU5c+WQf9/VyY4bRBBwBuOd17U0reg+IlutYnE7v9FBNvNjB/+8yM7/tOPrFJwe1aBWGTs+j7NAWqigTVQLhhL6dK1vr9dXWSJT1KVAAADOhyxu7dJUSqCr1ULglDCYbO2mXZYXcEgyZ1W656QyV3m03XaWptYHU1RQgcAZojzimyfP2Zn767fGy2Ovj5FBn0yWH39bYW3937jl8sTbv1ncgUOPiNE4MKpRJk2WZ96fYOknzo6UD7+fI6+pC3LId5I6IL7zwEsj7cBmXBOOeZyuAuf7sctlwFu/maDxB+P78qeT5aPv58rH38+zQ42HjY/w3U0Flt2LH2s6vU/Zj2rb3/1mtp19wlmzA94eZ+MYCE6FtzNgdR6GTVjpO+k9awF5F/SBrxC46FYx0CyJSceUhLPJlf5HtysIPkK09Jkj6dGKrgbhb/e2teTOa1vInX1b2DV/cI4obsiCldGycNV256LNhn2xn2Bz9B47xJZ7aHmsDRKh6Tap8HJhQU/9iyZDc2LxzFi0xQQbVgL3CHimgV48cOiYMdAH382WCbM2qCUSr4Kuox1oy5kfmQVu0aufTTWLgTbXrVFK+nSpb8fnc5whlhZni/q7Bnw7rdc5FY0zNKsr43GRs1s3qnZ2QRZOx+aA35t7Nrbj9B+5rZ1pNc7Q5NAlv2LtLE3OCm1Uu6y6halWXyA4+KhZfeccViy5vfsPS4uGFe18T452xN1DWDCu/kCAd21T0xRA7K4D1t4sBx2uzOj8dAUE5YTvrfz1gWbg1C6oDnO/YoBpihnOad30GSZ0Tw53USB/Hul/cxu5XIk0DXSIsBpqKiOcUuvji5/mm/lt1B0wfHOWRpmlgvWB1ueQHkAAc/aSrfYdoj8K8+tMtrq0sprIOS0OwfH/BfPndg4h1ntoaX/QbmIgP/623Ez305qGsprWq2i++tkEDFkl2KhCDbRtUkU+eravPNO/q7w78Go7XBhmRhD4n3eJJcPvf/XrIM+oe/XQLW2tbay2sArkokr5ovLlS9fZIci4SZzHydmZZUoUMNrjCEb/lRCY+7HbO8jb/77KtH0oOi9VrKBZfy7aNasq7/y7l7z22JU25mTcodYYgi0QddQFtICwzhu04lp1WQVGE9o5n97LEGEEKUNNw4UHNIe7RMmhsKxM+AMG4gBY+nxcGTQs4tDhoRQCnXdf30pyqmnP0ikMHQiYFzMawCi3DPifvKhmO4CRZy7arALqhK1ecOguZWPJ1KpcyqyODWplYNVULFvE7h07kWwaPBWnjWFxnSqp26G0YEyFIMESQF5lFpj51AFBXdutgcUZANYDp1s/90A3efLuTubTO9BK9H8ORMZcx/IiAMjZp1zHTXBBQPXlz6bIMx+Mlyff+U2eVZfk2Q8myDa9TlriM4FtRvAguDnG0QY+CGirv8BqrtZEXnWviDlxSDJgLmCVQBAjsRPF9NYudTEY4ywF/AsI48yuB0UYAiLrAAvBGE9B8DAwAFWwQO4UAmIFguPoMgZa2vnWtmkV0/i4AZj2gfS7dssux4VRQHg79x60pTo3XZTeY6XE3dvAdczeji2qaTWQ82np0Ly6c66p3kSAuRrWne/ChfLIk/d0Vu3e3o455OjCJ94ZJ3c8NUzr3udLFT6wDmgHfQzcR0EgkjM8r+5Uz886cXrD2LrXCDRa3Mb534BAfOWLqaalj+i8YJURzH38jg4BgdQQlJwJIve3nBCYIJhwAPQ3n6annbh5J330knXg9Bs5EQ4uKgHBYby5czldTjyIRk1LJEVUaFxaxwku7ks4LENHLfVtckIInJZ1m3fJU++Ol0dfG2Xnedp1S+0QHIzAUl8uiNDvHiAtFgLanH0RHz7dRz57/lr7PP/g5cZQ1EWsAfcEIUF+NG9v9flhxB6XXSJXtK/jCAi96VoalO1sgKEi508HFSqvP36lMdu2HfslbveBFOspM6CtppIVBBxZ/nPHg2g4gcIXP55kS8dcc0bC/qSks+t2L/Uae002RDmuS4UyheW5/t1syZmYBcFXQK1O1rR57bdzSZF6Lc391ARp73HBCs7mlzYVzE8SfdTvxDkQglkNyFa/4UkX6S5z4vMCltOywjInjDVVGXDXnoMWRLvxisZpCAAtV71iCZm5ZIvFCdZtibdltxWRsba196ufF8oWHRcCgV1a15Rfp6yWCbMj5YQyatyug7YsTOATk3yNb7WhoJrkV3WqK5/+OM+WmAia4UYgBG7scakdVvzJD/NkT+Ih48NN6kqwSrBj1wHT2DDRJdVKye19m0vnVjVk3ooo+fynBZaPdtCX6LhEGTl5je2w5PrMhVts4xTt47R0fHn4AE2f2WVOlv4WrY62VYq43Qdl4txIFZTxMmb6Gvlg6FxZui5GdmobrupY15YIfxi7wtqBZRO5dY/69KVl0KeTzVwHG7R/uE3EYEZMWqWm/nFJOnRcNm/fIyvXx8knP86XdVvZyCO2fExMiIAjq0C4HwRgh09YaXtIYO54bRcb2oaPZ9XhkMVn2Ej1rzfHmVsF1us8ErgcNXW1zSfLo3vVOkQJsOLj/+LW3Vrn8AkRJqyb1KtgsZtAS/NCxphpa81qBWwwO6dlzjCFzAUDCKFt4yrKuNlkjxIHJn8gCGI9pSY6S4dYBNtiE4xhbXlR85cokl/uub6VVC5b1CL7h1XjMFDHjp+QrTv22QnldygzF9d0FgzSMo+qQIiIjJPjx524gm2mWuUEwLYrc1sQUK8z3uyJQDgkWwAtm7k5a5XAXfA2oP2JDuFjPazeuMui7UmHj9o1BB+rIezBQNiw34JgHKa1xQEyCXZEvvhQd2mqzMKKQ9zuJJkwJ1LmLd9mgoDl2PtubG0xCDaLEWgECCQsrvVbd1k7HOi47z9sgheGv+WqxmbSs5rA8iaMiaXDbk/m6qiOBS4I8SCwfF2sCTuEDQKWEYKREZIIr5UqyLnOd/rtsvXehCM2V6v1c+y445Ixzou17EALYnP0XttjgVBoo+6iv/DICsCGokfh9uqi22rNrsJ7XxhpWoYgG35vMHB/5uItpn0wO4sUyis1q5Q0oiHoBiAmdkm6Q0hwi0g/lgrEt3ztDtuC3bdbQ9v8YysLmg7iq6EatG6NMhaLYPXCXdZEKGHVQMCAgFyLhpVStsRi1i9atd2EC+VUrVDM6mWDEtZJqIkn+NZGhaP/rtHMAGGE9bJl+z7TQGxkQpiydMjKA20h6MhmMjdWwcaoBrXKyYKV21L2fqCxmvv6w7gtjIiWZTpOrOKUL1VEGtUpa/tAFq6MlqMqdHFxaum4Uz5CNkqFsD9sPPUDI19SvbQt5TIOuHOUyX3a2rxBJRUsBx23RuulPMpljwvfAQHU5z6cYJu/qqkl+cnzfVNiUlkFzivnlGb1ezhbrdMXEO/7BISaIlnpWYzBvyyU//6yyIj1x3dukbJnubvQQ9YCAujhV341642VGWI/WQ13PjPMrE6k6sTB3rMYQXHr1U3lMvU9Dx05IV+NWHSGmenh4gPWyre/LjEr4upOdW0HbVaE2ZgYTGGSfMYCIgvyDqsZz/bvKpe3qSlL1+ywoKGHixsEYTds2y3Xdm9o1vLZbCq7IIAyDHeNU5G+gEA4hF/WBYViRfLb8iLLjQgMDxc3iKN8/sJ18uht7VM2g2VJwM+Z4OmL0oJwgZYg0Ob/xKCHixMEltmhantMsjLg50y41BdlDMKDh4sXztJ7uCoxXQHhFORpVw8esgowls2IcH5miDAsiCzsY3jwcLEhk+ycroBwJI1nQXjwkFXA497mF4TJ1p4F4cHDxQTvcW8PHjyEhiMZvMe9PXjwEBSZedw7fQHhhR88eMhayHYeT/f24MFD1oKr88PV/ekLiMyIGg8ePPzlwYOJmXEMPAvCg4eLCAgHC0GEKSUyiEFoKZkRNx48ePhL47TL0+clSEkpmXg01MNfA7xtijdP+b/nglfB8aJef/DORzu/wwdeIceLbf3z8dv/nEret0m+sI4E8PDXxHl93NsLRFxQgOFvH/iT9H34W3n6vfHG7EvXxsg1D30rfR4cIpPmRlq6j76fI3302vWPDLXX6/E6tpse+176PPCtvUSXfBxD2PehIXL1A9/YQce8RZsXx/Z58FvpP2hEyvsnPVxA8BP+4cCLQWQxJCnTcvDM8ROn7GwP6CEqZr+9pfvIseOyc4/zRuN1W3ebMNmXeMQYfW/CYTun41hyssTEO6dfcVgP78o8pHl5D2Wypt8QpflOnrQXrPDyXQ8XIsIXEmGc7p11Xnt/MYCX33AEYLmShexV+aWLF7T3HHDWBC9u5YRvXoTLC14L5sstfS9vaK+V50wQ3tRds3JJ+VvPJnb8HC+A5Z2FHVtUl+6X1bE3UF9SrbSUKJJPru9xqZXh4cICp9fvUWGPkxHO6d7pvrQWE5WIxj/6NM1SL6314OFixZ3PDDd3EYTzVuswXAwvBuHBQ5ZBJtk5DAHhrWJ48JB1wEap87SKwWqIZz948JB14PJ0uCLCW+b04OFigkmH8Hk6QxfDczA8eMhayKZmRLhPZKQvIDwXw4OHLAi4OjzOTldAeNaD2DbjpMPHUg6k9eDhQgYHFWeGktMPUv5JPMEOPY6w53j2ENsyDOz/56ToiMjYdNOdL3z43Rzpfvdg6X7XYJk8d4PvqodwwPzwbAe7NNndiZBlq/afMW8eQoPxR/GHq/wzjEH8GYiOS5BHXx8jr34xVY4cC719N273AXnktdEy6JPJf8o232JF8tkDrcmnTsmx48m+qx7CAc92XHnvf6Vbvy+kC587vpTH3xhjR/J7+P8DggERHe7zWhnEILSUcEVNECCtIIh4JZat2/fKttj9sv/AEXsi0B8w+2n977haEidOhH5KEOGBAkpOPmWnMIcC5fE0Y9SOfbZlnOcM0F6BoH0Hko6a4NmxK9G+JyYdsacVcSn+0buZbU92bTLK4IlI+kDakyo4/MGzDQl6LzY+0coIFGI2HoePWxo+jAP9gJkQkmfDPCljvO+gxOxMkP08fXn0uPXJv31YadQZt/ug7N6fZHnIC2gH/eE+Bxnv1Ly0H6G4c89B+30infEOBo41LFeqkOR2D8HNdlqWrN4h6zbHO78zAZqJBeKOG+3COnF/4wa6fQkH7jySN1H7Tf8pn3lN0OuMVbigWuaZssjPd8p324YFlZm2uXNBWbSRspgTt7zj56ioMvu4d7pbrZ96fzwlym1nsdWaYhet2m5PBm7evkeZ55TJm1LFCso9N7aSXp3qmj+E6T53eZSMnx1ph6Ze2f4SyZMnp+RTwrque0M7ZBfQnrnLomTczHVSIF8uuapjXU2XS/Jqur5dG0jJ4gUs3aboPfLG4OkSuXWPEpLDoEUL5ZObrmwkt1/TXHL6zl6EyEZPWyPDxq+UuPgDJhAqliki2bNns88nz/aVEsUKyGOq9eZp+565r6vkzJFDPh823wRU3rw55aWHu0uDWuWsPB6M+mbEYlkYsd2ejsyrfahTrbTcdX1LFTIV7fzP+L1J8tyHEzRtovX9hQe6ya9TV8ucpVuVEE5L03oV5JVHrshw+6sLiIe8Q0YtkU0qgI8fPynF1eopV6qwCcYvBl0ntaqUVIF1QL7VNPOXb7O25c6dQyqVLSa3XN1YuretLVtVkD75n/FGfGVKFZTILbt9z3SUtG25uHY3XtFIHr29g6/m8HBIma7/oJEmrEoVLyibo/dK38sbyJN3ddIxDt945ZHzR18frULrsNHQFe3qSP58uWXk5FXGoA1qlZUXHuymdBHeobtjp6+Vr35eKCe0XwiyZ+/vKu8PmW1jk0Pb1f/mNkZf4QCBj0W7ZtMu5blTcmmd8vbsysdK99BUmRIF5a0BV1n/w8GyNTvk1S/Vkj5yQmk1u/zz1suMN9ZtcQRr7871rH1ni37PDJc1G3fpt9PnvtXaWS4NX/oFYmFEtOxQ4uShnjv6NreHgvao9vpy+AI5pFKRAfz0p/k2AIi1g0pQwyeslO9GL5OvflmUMijg82EL5LdZ60z6HdbB+3lChHw3ZqmlW73J2VsOVq6Pky3KLJXLFVELoKl0blnDpPiPv62Q7XHOU4oIL5jq3W9mmeVQqXxRY+aEg0fV6lArJ1G1ks/VQdgCCDEqdp9pVLRM3ty5lOmd4cNaGfif37V966VksfzSu0t9qV2tlERsiLPHo1frX2DCRykcDUGe5z+eJHNU6BUvUsAERqy25Yhq/3BAH2Ys2izPfzRJ1qpWLqGCtH7NMlYOTI2G3aMED9HThtFT15gmol0IaZ7UHPTJFBkzfZ32MZvVG7/vkGyM2mPETBuXr4uxh77o+4hJqzLtZm1SgbBp214b2ztUONP/hSuj7QnSzCCHb9wSdX54ihTrhr/2RKnOU84cOg/h2swK2nFK6ZqxQXjB5NAB7cqm9zIDSIDysNrsiVilD8phfqE7HnDLDCgLlsOCoKwDSceMh5hL5oH5PReoReD7Fh7SfZpzyjk8zUlHaqv2QoM1V8FQomgBO2J92bodNtHXdmsghQvkVeIpJSX13orIWJNm96t07Nq6ploSdcy8dwe4dtVSJo2Xrd0hhQvmlQf+RrpackX72ta23LkcU7ZqheKm+Vo2qmSEXqlsEVmpZWNKItkrqJXARL702RQ5eixZenaoK28+fpVcq9ZK3RqlZbmWD0H26VrfLJqJcyJNsOTLl1OmLdys2vSkWSJP39dZKpYtanXCfAg56hp4T2ezGFpo27eo5bRtR4KJWOpG63XRvs1eslX2qlbMr1r62f5d5a7rWkrrxlW0LZdI1YrFwyICGOOdr2cq8SSa1vrPv6+WW65qIu2bV5UIFZL7dYwRVCvWxcqvU9ZIgfy55fn7u6lGamdji7sXpZ91m3fJ/TqWeH1LVm+XDs2ry303tpZJatmVVkHy0bPXyGS13jDB0f4F84enpU+pe/O/cctllQortHH9WmXMAsSKql+jrFSvVMKXMmPw9GkPbTNW2XKlH4QXzIPQeEbH77Y+zc3iCRfQZMcWNUyw7tL24OLt3J0kzdSCQ9s3rlshbEbkNPAOLaopXRW28UtM4pH6gyYcHlLt/9ht7e1J2XBRpmRB6dq2luxR4bdFeRBBE6fllS1RSN4b2Fu6tql1TkJilNIqghXgQmf0NGf4dl4mgT/+88QI+c83M2XAW+PsydD/qMZG+9M9fG862rReRWMeuKiQEl9PJSaYk4EooAzlorEKqc6talheGAtXpI8yQLc2tdMQ7XjV4u+pufjEW7/JwHd/l5c/m2oCAcHpxi2wEvAVGee+3eob86CFWjasJG/+q6cRHVo2FWqOzdlg/n0OdTMa1SmnwiOv756opYN5edom8om3x8l9L/xiwdR1aqqTFy3lIn/e3JJDTUc6cue1LaWTWjilVfBRd90aZYzowwH+KK4DuFzHCrcC7VOlfHF5c0BPefHB7lJXLTeYAFQtX0zaNqmq7c9uBHu1jjNmPsyGi5Ub10vHiHIYd9wpgrRFCuU1Mxzg0oQLrJWZS7bY95GTV6sVM9EsNOYBgeP/JqtwACH//eom9rj6TmXqGNX4N6tA7KSMnlktDd2hKF7+Zw8pWjivCVT6/MRdHZ1xzCQDopx4HJ75PHTkmL0zo3OrmnJDj0Ym3DID2obCfLxfB6mnCmu9loWFM/DezipUizsWxjkBezH8F9eGISDOrkH4m0NGLTVz/LZrmslXL98gHz7TRy2J/NDhGaAW/HA3QIQJjdZKGyJx1nBxTVwC4z4BN4I7mJ6f/jjPgmq9utSTLwddr374tfZ+BP9eFFKBgJVAYZjVLpicSuWK2nsRsudI2+98qr2qqXY/ppr7vSGzLKjowvXjqmi+x+/oIAPu7KSfjvKcauyB93aRh25pa/fTQOsurBZKetqA4BvWyVB1h6Lj9vuuOoAoTWvSB3Xb6L8LLKdaVUoY07ttY4z4uNitY4XZQP3+RJy2OZzhmJlHe1KB5bJz90Grv6TOOXGj8sp8+PhLVkWbhswseNnNqg07jYFp1xQVNFtj9vrupgKaWKTu7dcjFqvVsjXN2LggDUvmKKwcOk4HDx2VESrIQrlRWC5fj1gkM9SKDFbeAaXzJatj7DtCePGq7bJibaz9DoQzr6tl6GjmNZWOXNA24gQElHP6YjU/qYvsP39/FtJ1MaapiwHBYMJm1sXYvH2vvbKMwUKaIpnZv0DgkoBlDWVa3Asmmsn5RX1cNDyaa3P0Hhky2okvIOmrqPYD+MkEFVntgNBoI3GIwcMXKVMUMC1AOUTv2zauqm5JSdmgvjaBvCPqTmAG1q9V1jTojMVbLPgVuXW3FFMCZq1+5uLN8u63s9W12igdmlUzy4OA1t6EI3KnugH9b24t09XvxyLAVy9furC5TWjWmVoebkwNdW8aqDkNA+Pa8IIOrBPcJbT1LHUv+BDAK6zaGV8zZucBe6kLY+UPArJv/XeGLIjYbvEYLCYXaM312vaN6uOzWpNH60NwQsjvDZ0tP45bYTEfXDte/EM9+LFYacuVeRlb3jJFgO+arg2sn4xVUXXfqlcubu4lc99CLRvoAJO5fs2y5r5lBITZF8MXqF9/QFpfWkUG9Oso117e0Fy2Fetj5aDWCxPUU4spXA2Le/LaF9Nkk7ptf1PLoYya3EvVpI9QgUEQGjpxxw/37b7nR8q8FVEqBKKllbqbJf0sQub9p99WWiwMXsdqhEYiIuP03iETZMV9wXGAknvopV9t3gioN6lXXue9sO+uWD7oZoEKJVw0LOIFK7bJQhWEjHeFMkXTWDnjZjCv07Vt23UO480VdIHlxVywB2efzhlKhhXAiA27jN5xs6G5s8WYaWtMoYDz42KcKSzDAm8jQpMdV2HwwdA5ct+LI+ST/823SDsqCf8ZjQ8wsYlXIL2/HrlI/qODPQuGU5MUd8IFxE6cgCW3ISp9cV+mq0TfrxNIugrKsJXVAqDNQ1XA3PvCCHlz8HQrh2tYNPjcaN4n7+4sJbV9MUrEL340SR5+dZS5JpuUSWh7QSXm77SMSP0NEEBFlHlgKqVt1ZA75K2vZijjHTbTnSg/mmXw8IVy/4u/mosxZPQye1VbJV+sAmJlFQMLh2EdpcLjlc+nysufT1F/80xNSLD0pFpV2bKdPkNrsRpzzw2tzLcnkPWBEtTDr4ySQZ9OsUg4fUMoN69fQW7t1cSYZ8LsSHnsjbHyqtZJLKBC6SLylFo461X44JohEWYrI7ISQwNxPYaNX2GChz4zPsG0ZyCG/LpEFlOGzvNMFai4GghghNLBQ44WHD4hQqYudGJcGYEA4PMfTbSgJ+1CuLiWJoJ60KeT1bpIdeOOYC0ddd6X6bxcN60NRHAX4YCbyf1cqpQOH002C3bUlDUWEPfHUU2X5NPeydp/f5uKYPD7Q2fJfJ3b01oV7WKMGCWspDe+mm604g9ohnllvE/x1w+4J/AGFt5pLYd5Q7nR8VlLt1hfzwlUm7bKdJH+MqfvjVJnu8zJhP46ZbURI65F28ZVpIAyHtK1ZLECcn33hkbopGVAxk5fY0E9fONqFYuZf47J7/qEpEOrIwUJsGF9VFProqOmw8rAPyNA9NPvK1QrJypD55GmqkWrq2uA5keDoYUJclIW0WbKQjIjuXktW9umVaVFg4qm2dAMs1SzMFFXd6prWp64yl7fchvBLmIlWAhYEaTHColVoZMjZzZ1VYpZ3ISVAywehMUYdRmcCbce6Ud9zmL55ZpuDc6Q5miuYb+vNIJCywe+4o0+4J/i07NSgo+PEGuqQoGxc2MzMAHBQhiDuAXmfq0qpeSqjpfYWCD0fp6w0kxY+t1Orae52u+jSvztmlSTyKh4ncNDUrVCMRsHxj092DgQf9Du5cmdQ3q0qyNlVOuNU83oxGNwa3JaPKFsqYy1If3EMkSwQhvd2tQ0ocgqmd4yS44ArxuohEHHz14vy9VaaVS7nC/ektpmVizGqhY/of2j/9f3aGR06sSYspvVw5KzC+rHikII1KlWUq2hRo6L6t5TQbduU7zNJsFxaH3CnEgTGMRwWNJ3l+tB6rwe0Xmtn2ZeUWYs3zInjNG1lzcw62lbrOOKoBC6qEV+tuj3zDB1X+J1Dk/LhMEZL3OGISBEBUSzs3rlnFs0/7rTkx5xBTYlVNqM0nGfJO7lcOp002dE/BnB6vZ9p6TzUZ6LjMbD7QMIltZtm3vnXNv2V0Y445YZ/NXLCxf9nlYBoVY0VsSE8/HKuXNpOh3n4waVMhoIN01GaTNKxzU0Rqj7/nDTuOnPFVaW73O+ynM/oeDez6jPlsZ3P1SarAK3j+ern3/18jID73FvDx48pAO4OjzOTldA/PmyzYMHD38ksFgyo/TTFRCe9eDBQ9YCUSgUf7jKP30Xw5MQHjxkLfh4OlzWzjAG4fkZHjxkHRATNeEQJl+nLyA8ePCQpWAOBsIhTBMiYwHhuRkePGQdsP8iE4/GZ7xRSsvKnyeXParsFEtyJxKa9l8HaQtztqX63wduGq6FzpsWbt3u+q2bFwTeC4R7n29n/gsC84Zu95l5nevBkJo3dLu545/SH87VtPX55/Uv10Fgu/3z+v/rgO+pCN1nwLXQedPCrTtUn/3vBcK9z7cz/wUZ9dlB8LzO9WBIzRu63dzxT+kP52ra+vzz+pfrILDd/nn9/3XA91SE7jPgWqi87OJkSzmCIpwXxoQUENMXbpKB7463HV9uhWcg2I2AVvknSZs8SOaUvEHuBSJYwSn5fX9DIVjxAXmDFW9IN++ZN9Ne0V9sYXMvuDft75l5z0CwJFwDvushS8lk3rTJg2ROyRvkXiCCFZyS3/c3FIIVH5A3WPGGdPOeeTPtFf11oc6Vf7tBSt7UlGwp//2Lu85eQPC2ndcHT5NFETG+baFUmlqByTC3YgVX3XZZIMQEi35JSeOf3yf9fPfsu3OZjL4UQP+1L3olaF5HKlte3y9f5VwNkpd/U9tt5fjltTXidNrtnxe4+e2vfmGYnNtu/tS8XHDSOdetLG777pDMaUuwvPzr1p2a1/1lN8LsM+Dqme128wJuuvn/GnMF3PG1kvSGN1eAm27+EONtt612+8r7PXjnSv+b2kiuDN6lEVJAePDgwYO3iuHBg4eQ8ASEBw8eQsITEB48eAgJT0B48OAhBET+D8Z896N1+7fHAAAAAElFTkSuQmCC;" vertex="1" parent="1">
          <mxGeometry x="850" y="288.48" width="124" height="52.61" as="geometry" />
        </mxCell>
        <mxCell id="2zejV1CqlXeHGlocq-Ae-27" value="" style="endArrow=classic;html=1;rounded=0;" edge="1" parent="1">
          <mxGeometry relative="1" as="geometry">
            <mxPoint x="840" y="340" as="sourcePoint" />
            <mxPoint x="640" y="340" as="targetPoint" />
          </mxGeometry>
        </mxCell>
        <mxCell id="2zejV1CqlXeHGlocq-Ae-28" value="构建超长回复&lt;br&gt;超过以太网MTU" style="edgeLabel;resizable=0;html=1;align=center;verticalAlign=middle;" connectable="0" vertex="1" parent="2zejV1CqlXeHGlocq-Ae-27">
          <mxGeometry relative="1" as="geometry">
            <mxPoint x="45" y="1" as="offset" />
          </mxGeometry>
        </mxCell>
        <mxCell id="2zejV1CqlXeHGlocq-Ae-29" value="" style="shape=image;verticalLabelPosition=bottom;labelBackgroundColor=default;verticalAlign=top;aspect=fixed;imageAspect=0;image=data:image/png,iVBORw0KGgoAAAANSUhEUgAAADEAAAAyCAYAAAD1CDOyAAAAAXNSR0IArs4c6QAAAARnQU1BAACxjwv8YQUAAAAJcEhZcwAADsMAAA7DAcdvqGQAABLSSURBVGhDvZpbjF3Vecf/e+9zmYtnPGOPPbZjYzwztuO78djGGIoMBGQoBkRIQ9sIUUra0KJEVdWH5qnqQx/SVlX60otUqZGSVE2VvtBLEguISAqEEAMixNhgB2Pjy/g2xjOeOXPO3ru//1pnbCdKCH4Ia7zO3ntdv+v/+9beToqyVSZlKSmlJlJJnS0J7aGPUrqf4u6kiPcfUQkUeN+y4OKnWRpNUwo5ZbOMhCbQnHHbHhCIpc4y4Yf2fLiOfR9RuSwymDARUdwlNQvNSV7MQLb5gAlV1Mp5YlQO8XlRuCcOdG0zmITLR8OF94ekIMtKBmFsXjFbea5axUzATJ5P8ZtCdEZXqsnpQidOj+v4yWmdHj/HEFTIxKKITKbcl6zop7Zifubq8vNtv+jq8mHGWA9J5paWli2apyWL5mpBf69q0J+imZTRMDFZ5hAHX7pwqaVnv3dYT337JR0/fV4Xp6cwHRMNE4gjTSusnrNLi6sX/vUXdlZWNiG61Jx6h27YsEr33bNT61YPqqvW9uS8nIKkii41K/ru8wf1r1/9to6daShPayrSBFWiOjRlLcBt4DyFgSuS+nUX+0CuFNOGWETd1Ob1y/RHj9+j4eV9pgqNlOGiCxNTev6lfRobf19lpaqCmqOyPM1VZk2JmmYtGLAKAyb8kusH9V19/bBjzAKkJ11qJT2azjv15tsn9dK+g2phDEVwAv75cubcBR0/cVbNJpQX6CmvwnlFWVFVOsNyM/BRVAKC5ZhXzgYfRUVsCDKFCZ7TTEmtQ41mrnePn9QMXJQWqlHIpdkq1CowlqSGD5hYnBgJZKqjMmpZU9qCZ6DLmjNim/nLFfv62eo2xvg6O9bPl+cyhpXitT0/3F89BsLdjlkbMZMMpnBmrzMDI1hXKGnGJlYfPMIADg63dtoE2yuTFttgTowJuOqB3iL0R2qrSRXGuPfi/rPDs5ltObQzyXuUBWBg9lkno73q5XBYud1zgu95XSr9aQiubQwscujDIfMmZJRqohkzYpoz1odHT/BwbxGlEIOZN2UirTzRbrzmNy1ojQTlYHXmFSCmwp623kBUk83CalTHGja3bAqQocWcQFqrGXmlJhZS2OUyBWFMIINqKI26Yy7jS0gHsxjn6YGJsE67zK565fZyCc+YHBwXFdSKw1frqaaaF1m7oQ6cpifL1VspVWfnapLhQ6AJ4xMzbyJrSBCUbmLCBVxZvklaxyza5hPGRU+wJUQSZv/a5IQbfqiz/cFArqlYKhgjRoQ0G6rDzLLBXt17+1b9xZ99Vp/55J2a213XzFQDScMA0i+KttlMN1TFNAb6O7VqeJH6e/A7+r2eTc8mFEiCOjtsqHHXDyzXxIQ3qYNW9VaiOnTVMY0F/d36/Ud269GHf0Nb1/fo+iVVddWJKlVUDvGt1iV1d1bU11XXvFpNfWjm9tHV+uIXPqm7d21UX93YX6hSYB6oKfhC8CVf8McUv4SZDyrXrAkUgREAuw4zwO2c3l7VO1MdPHBUJTDs2M8o/mFuaVOb1izVQ/dt1SMP7dSeO9bq1i3Xa+fmhbpugbRt4xLdfecWzeutgH7RymNSF9w58NLm5wPLtTHBggEmQYeGwSKr6ejpC/rnr+zV3mf2aWqaTdk9y2Cl1dLihb169Hdu04P3bNPKZZ3auW1It9y0WiNDA+rAN1aPLOZ5vXq7gW+nM5AezceUfwjq2+WamAj4gA9M48QlJjODI483JvTTE0c1Bdo4jBBqiDctnBXbH+jX8PX9mpokJ3vuR/rGf35HT33rab386puaxhxf+tFP9O//sVdjZy4G544swEybIashsXn9CjKviQmXhHS4BBubxnik6ViSgkil0xOrnzEZ/RUw99TYmI6daKi3t6ZP3LlTw2tW6eT5izpy/Dzpg/TOe2e077UDMMR8B8WggGj/AYD8F5z9gzVzzUwUTRZt1YDQDmX4QA0nrzRJIdFExTEAMypmpkkFCp07c0Ff/vuv6Zln31TfvOu0e/cO7dp1I06PSWJ3KZlprik03AjCCFqYLUgjgic12tgvLdfIBARj75mlEzLKDHTp0ui6DVq9clh14sD8/n6NblwL7PaT/y/SqpFV+u//fUYvvLhPPUDvgnk9lzdduWpEN920XXPm1HmKATRKfJZ43/8KDijXyIRxGzPKGmoWl5AmB5UlC/SFz9+ve0GgrF5oeGRQf/DYrbp5x3Jdf91cPfK72/Wlv/qs9uzepLOnxvXavqM6cuiszo1d0A3rluuxR+7S4IIB1m6bC4hHGh2vwQthLpjYL2eGrKDEBaVXD57Ql/7xf3Tg3SkOPw5lpBfOR/jnzDWCHoGLBYu8pU6yydbUjPp60cTmNcQGjwOeGFcSrd9667BOnTyuLVs2aPnyZWo0Wtq//4gOvnmIFKWiNWuGNbRqWOcmcs4xL2uygW1SUuDbqYaZKhwnePCjfcQJKMBIbeqOnUP64ufuVY/3/YVMkNQ5wBSXmbBztfMa2krSiZS0oQnO1qrk+s1pNDMd5jjBy+mvV+rkVXX6HK1JMJwnIgRnxlVqns/wlGsGAWWdnfQ5zSAbwLudks4mE0EHbWdP85gnzTLx509EJkxmwPaAAO3o4lTblW6q2ywNpwH84rwOZE0cuVqvqjGDM1e6ldT7MKe5ympdqnXOwSI61ORMUqn2Ka32kzz2Yoa9XGuaQVNFpZOzQbeqHR2sB5GGUlfvYZpCNR0uXOlzfuVQaxqDWOl0f2TClWzTs82MZe4FfPgJE5Cuq1PtkOGaN5Cl6YNtNZ4M4YT9nWYjbdp9pKmwunMnHphvIjEVn9PJhEv6YmZkDQDT1rZ9IaT9UQOuLvFNjJPFSkA1fhgfmXAxbWGeU+oMG6ywga8lhJTkPkHFDLYJRf6dU8fUIG5jY7SMbCpmxxxaCPYN5tFXpgTHBLMK2anHsz5/QRqBwLiaR8c1Z8l3YUzYm7UhxAxXCLKVDDqh1VokVY9Kmj9vrhYt7Od+BqIbCGsmMmQjtDlhq6XDsY+olkr4i8WEReI81AwyztIxUbZnxwAzwTWm2SayLcawSlzJhM4+/Xz1maIsGixLdkyAWrKkH39sM2cCLemBvk5t37ZOPV0kdzBRqxYiEWUiBDCmgmemmIxzpyh7kzG7xdW/7TpLI8UbeUYSmLF5+TnWK3cunhdrXMUCjocko1LRIoiS8ly/fJFGR9cj4Lg25uQJSJxU4Zabh/Wph3Zr0eBAGJDjvGbABRSjejOmBRuMV28RNm9Xn7rshFf0FIt7XF3Cb+jmLkybHetr1GRoDkxYyy4lKX1d69et1qc/vUfLl/awj7UKEzlHRx8zXeZ0VrV505BGt96gxYODcB/NIgnn7tmlTDQOyLkiwbwiYdS2BAuQx0cmTgjEGbwAkwx4z6ggV8zNJmdnDcxcVcLadm7memzwK+5y8rSOjrqGh4e048Yt2rC+j9zMYoroleRFK1hFI0+09/tH9C//9rSOj50L73RKYkBpH8jxgUoFa8Yu0Uxgzg7FEt4qWIc1QIvNzDUJvsRdMB8qY4J2gpZsxVT8JZhYKLN9ZtCDPTf6T8hksYRW85LmdCXauHaFPv/4fVq5xCcb9OZjv0+Hp05PaO+z/6cTY+eZDHaD43gC9+CNM1c7FplqkTXxbQIVfuN3pA5gDpdBrSY/qNgM0mJG/TaEhDEt6zxbo1FTJtjvY1Jg1wTKWbFBpR3YghbczEq2kxKh1DvmcMJN9Mb+n+q7z72IeVuMITR60UwX3p/UufOTdBCt2SSeom2fSIh/QTK02qqcdtQq9GOGBcfPMifKE7ELrhmM2Z8KIrKZas1MARCeZP9qQpgpg0G/7iGZTACOOql8d4fJQTAcD53dxmLheX9rLeOcQkuliywg1enTF9VoRq9JI7fQw2C/fSgdUECh4KCBCSgKI6LpZGxeR3oZKffCvm6tXblc61cv0+KBTnUBeaABTDl44RXh5RLxwzk7sSIB2x3tvWoNxlIYSPKGRjet0QN7tuu6j80PgjDDllsQMPTMslTY3Ij4nO7JxWymHsU6V1CEBxw4kjpLdru0Hxzeq3CdcV7Ytm5Ijz68U08+vltPPHaXfu8zt2vrphHO1ZauNyO3MqL6KNucYDoShoEqMkmM98Uk4pmAoYscUTdwDucIO7QsStX2HUwsbu8SPidYG6jDkdu0mnIPT50O+AEHjxUJOh0If/bYNo++WCde3Nhx8/ZNGt2wUtMXz6CFunbtXKk7d23mfh6GmKsTE8kImJ2cMebOIYfyy1wSwQSfSTXN84S6OibVWZ1k/AQpYVtAHLKq/MXIDy32FejwB58sQ8iMKUwjSnU1XabHJheLcx07a0CUdhslnnMNj365S/JG3/dfeUMv7vuhTh4/pnt336gH779RA/M7NLcr19DWpVq7boWOHR/TiqHlBNJUr71+XN967lVNTMxoMZnBLRyGVq/s08SF81q6qDuQXMWkU5JGvy5MSS0MO+TfiJsN7RcQ73gWgIMJtiaDoN277bNRd0arkMPPMhGarRv/ok42aIA4L//4sH6w75DGxi5pctILSJOXJkGPca1dNaB7b/t4MLc7do7o1i3DeuieUd14w0bOHaV23bJSDz0wqu03rNEdu7ZrZMWAcTAWBBUgnB0dwxzQvHmFfVv4il+hwksYYxLDvW9sNeEmEJyqiUYMa/F0Bd84pwNXDuvuyeC6bPk1ZaaRZfP0iV1bdGGyqVcOntTR8xfQZlVdtQqamNZf/vVX9PT3fqK++V1aNbRASxZUtGHdIGf0ur7xtb368t9+HaSZUstrOzMmN2pQc38PIUMW0KzcwRWi7ZTQGdAzBMXwCO2xHdVYTfxdpQJr06l1fC8aQ3yCXTvs2Tn99u/JP/xt9fdW9cJL7+g7z/xQUzNenJiAzb28b79+8Mp+vX7gsGfiH5kG53Vo4dwunXrvlF5/5aBefP4VHTg4xnaIB/tPQbhAOyJuNU1DBzQ4nzONjvzWujVlCiMMuY+Li9+/UVGnkTBjUXyTK1CJSqsQ7msFZo3/A/NT/fGTD2pouFuH335PT33zOZ0/3WIFH/qNdH45PoPWWNOqRzbeDPTFLEp1kAd1d1fV09NBShEFaUYspAJYy5B0PenERyLaeU+HPQsUW2FwG36wCp8tAhOhhgcHHfMaufVdcGz6PNjaMRo8eP9t2rJ5HvDZ0nsnTmnjxhX6zbtvIsOcB0UzHFctUb/asVgN3TBAHX//ks6evaiFg33adcd2ferhPVq/4WPRB9vZgb9BmA6fYcJESps03zHOK1kjFNoDE0abKAp3eIBn2Of9HYBEjgBDYh7unc3W0PfCgR6dO4dTT81o87a1uu+BHdp990Y000/b+zozPqlLkwQ4cq+Lky2NnW9qYmZGJ89O6oWXD+rYqXFtAqa37tisYyfGdepsM3x+tu/ZFVNQyCCDSiDFerDo2qfIQKEJjsJNUG3p2PL6Wyf1N//wXzpw5KJaTvyCHRoBWIgDTfxshWoxqwycH127XPPnYq9OKVgsJw+aYvyhd49pLhFtxaIlOnh4TEdPjCH1Hn2cFPoYfnDo7beJD1WtHhnR4OBCIHdcp8+c0YJF12n/gUPkcOPQBRfYXw5wOGoAvhDv3M1pSUtdtN5584j+9Im71UuASfI8vu14/a1T+rt/ekpvHhnXTBZetrcXQDuBiZiW2LZFXlRt8URX+M7NGJtAC8TJqTUHJlYNn8mQYpPoHD+o2+/4s/Qgxsme33o4+hb4kiHcU8LHFmp4y2Ir8Nnc5gVq+atUNzTcdfNK/cnn7glMRN1QBub3aukg0RaCq3ZgR1e80J+rgqNjc74mfm1ixEAeadLFCh0BUk1I5nSADQuc0t//TIhfsCVZF5plrE2yrJHmd0BoJ0KxGDsYx7N8tfCi//jHjuuI7cQwg4EK1zSfAOVaWsHpDhQP49CEPz7RDYH7fnxCX//m03rjrSNqtDAfUIEhEBhkzYIO+2iIa5XFrRt//rKmUswsD9Ksw4gtlzSDdt/lMOx1gkPa4P0xJaTdHmPJeC9g2VoNR1jDuTURQJ8rmmG/CvDrzwC37hjVb+25RUsXdkUs9H9QsUJa2F+D5OrsxQm9c3Sce5bBWWw93igYjZ2d4OMPLFk5TVsMglf67XionvYQV5CepVqUc/i1GZkwTCaYCaYRGLXZIZzC5xczahV4Pd96cQsB0+3INNUA1ebP1XWLe9Q3pxOrAXoQWNJqTZFTYSr4gTdsYTYOKVeXqA+UaygL97H68cpI38V+l9Af8Nxe5YSONoYExbnRP+FUhyboDWbEgh4Xise1Fw/ZArVJ8KuR3ocXBCY+CItrnheBtCKHe25i3uKudpnd9HKJDQUEeHsfED3W9utdQyodZpgwf2/zZrEtfI8zmWFBi8qQ4qzZI2zgRiN3enyb4fZyBT7qq+cYRMI2Fn5a0f8DMnQUt9RfdWMAAAAASUVORK5CYII=;" vertex="1" parent="1">
          <mxGeometry x="974" y="291.09000000000003" width="49" height="50" as="geometry" />
        </mxCell>
        <mxCell id="2zejV1CqlXeHGlocq-Ae-30" value="" style="shape=image;verticalLabelPosition=bottom;labelBackgroundColor=default;verticalAlign=top;aspect=fixed;imageAspect=0;image=data:image/png,iVBORw0KGgoAAAANSUhEUgAAADIAAAAYCAYAAAC4CK7hAAAAAXNSR0IArs4c6QAAAARnQU1BAACxjwv8YQUAAAAJcEhZcwAADsMAAA7DAcdvqGQAAAqASURBVFhHnZdpjF1lGcf/Z7nbbJ1OO7SFocu0VAoFKvgBJAU11kBYClYxAYOIiV9cCBCjMcQtJiYiLjGkRiAmGv0gfjGKJoqiEdEQg0ZAdmgLbafLMG2nc2fuPfec4+//nntbNcYPvneeOefdnn07UVkWpcTfYJQR/wwe/7J+au3/HQNc/wvPfzvD2n9eCcf6i4NHWeSloi6bBdOYZ8ozCZuS1xi+WLLnW75Y9gnGfSw+5tf+9N/ODEaZV3hMIxoc9AiHeXgTROEe9P0I+Ad7/dHfh+kwDaiAqOx22VmQskzqQKxnhi2IuWPLF22lYCn2vG0jGkPiCSPjbGIFeL0Ppxj3PYYVFXBxp16rzvS8xl7MWuTzQMFa1GDR98wDEPtpHjicwFtzGH03g6CRWWUrKufbZXvPc9r3q8c0+/I+RYuLSkzUiBlxUTGSG4+BX2TgvdfLlNZS+ZdnpRKwljDYi81d0ZcpVhyUUCB/qYx5WY+Z5eAulPpolAZ5kqgX7uR5Cg1+vp/kAac1GMF4MdTQxHnnavO110urzpDSOluJopPPPFc+dd+9mnn0D0rnFlTrLmAPXC1ow7bhMs8eyKzM2BLAgK2eBK3DVBQryb0Wwx4GAkzc9krYj8wEvxzocS8PguZKI+6AvCgQFkp5lKmGxsvCAC0Et7F6Fho8XfMwVNPiqgmtee8NuuLuT0ljK4Mw0czDD5e/vutujc+8qWFrNVwzK9Y+RMxN/70MrmHdcBdoMvF6dbp/pg8ePodd+G/wDEADeQFj0EkR3FayGLW4rnaxGAT1HYsOezwrhdqtrKQcRc7Zoudt0a6vf1O1t2/HVeuKsyOHpblZtbJFNdThasWW7WAo+0BWgPmEUGgqT1taSJqaN0CqA39dwIRM1oL02QYHwqL5JLFFumg/g46AVEu4XLtWV6fW0PGiA+5Y/BF6KBSIbIGgPNyVOzXMk/I+miP40RPq7D9ySmtxYvPmXUW1UotJD/P1GWfTcVSHs5rNzDteriUCfX5smdrnb1HvndvV3X6ZFtev10KrhYsZpbV2So8Bj0c3zxwKikGWxT2dsLtMr9PbPnOXdnzps0o2T6ud4npoIyUg6yVObRfmrt3bHhDHjqU4qDomLoKb90dcELB1S0UGsfCnKIcXe3Y1whEmI5OTuuLWW/X+3d/R1d99QNf+4Ie6GhOPXbQNRRAjBHwnrmkpbmgJgbq4ku/xGszVhYsuml0camppYkLFWy+R3rFdi+MjIYnZWjWzj/uZpq8ZzMkSvNo1HfReyS11f9hYQQNNbln7Dr4o2MI6MFQ5O2cpA4ZWjmtowzrNHDmqV595URnpOr18uy685Wa1SavJ+HK11k4rX3WmknXTGj13qxLeczTorF20mmpNTWn4nI0qzzxLeXMZizWCGyckoCt5LYTj1bx4VFUjZReHCQrxfki9/WFjh4zgtYFB7FqVHpyFQrJVUvRUR8qFowe15yc/1vMnFrUXTB+59ysav/gCJZNnqGi0NH7JJdqw6yYdmT2sieXjmlg5qZnX9urZBx/S7MwBTW2/XOdf8241JldoNh3W6IZp6cQccURahqRjodJ3NQZPu5T5MDdOeiHxDYCBiGwBziMD9u2JVWZH+LBfWauJJbtYYu8Tf1T+4ktani0prqPpzpKOvfRy8OF40wYt33WNNn/4ZpUXna/FbRdpzW236+wdV2lpeqPO+8THNL7zenWn1mgUq4ytXgNR1x+Uhn/kzmpAn7/wdMRaoVU2gz9ioPKT05I4VaMFMg/QDQJVo29BjlUFzRZLOGtn86gvG9alt9yoobWT6r3yip7++S9wy0w5RVtpoQN/+6sev3+3XvztYxT+TJMXnKPa9JQmLt6m2Vf26PFv7dZT3/+Rju/dB6GKaiiQ+F9iH2S4CDsjdsheWZwz78GPk5Hfc5RccegRwsbZpuCwa4YvG+3pI6fN67UMzXVwmU27rtOm69+DYF098dADmnvhBRiAiDGCZ+6553XsT3/Wm39/WvlSW+lwqvqKMaK5qZP7Z3TwyaeAv+jY/jdAXFGqQdx6GLi5eTFPBhfYqsIDrJf4Vpj3mYuTYKaqVUiRwHs+bqb9ZhtZA/bdjJOdoWXatPMGbb79Q1hlpX66+yE9+btHUWoXoWgX3KtxOOp2VMf1Rl3xe6Ua9KZF1yoiISxbrt7YkLR8VE0gqNNxSkXndqBt5ZpH89QA6tQO71tLIVZ4d/szGHEQ0i9skztOIRoMkif/bU7zGGnqLVt0zs7r1NiwXuRDveviy/TRz39B193xSU2sOEOlkzxc1NByAyFapMxoiWJHDp5/DTc6Oqs1527WBz93j3be+XGt3LgOIXKYdCDb64MTByHMm93ZM4N/VbxYCGahh2NwJs5T533rvMoJFsRQvQMBUbVW4pdpC6R0AZ3ZozTLueoXXqjWpdtVp1VoLR9WvHhc2YGDiunbRroIND+v/Picem+eVEKCePb+r6o4dliNrRdQxWlUXviHsqOHlCzNB46sTivOAph2cGdW81CoaZ+cGOi0CzqNimt+vEf7v/Ht8vf3fFprOrgGjDn6bQNY5ojTMhrlzbK3kWZxZEzR5Cp1qQduqQMhTDxG5tLre1SODqtx1pTKQ0dUzsyqjeuMnH2mUlqKY4cPKG/R563foHIZafngIQ2DeIKK3t73hsaWwIY7NqBaOXPFixXvpJQgeEF70E5r6qxeoR1f/qJGb/oA/tdQdOjB75W/ufMOTSzMq8HpgRa61Ah3tXXqh93Ow1W7R3OXE4WhiyU7FdSWGH+lQVGj1w2VvEMaTrnn+OtSJBfsYsRIg8rfK3vcoe0v/U2Couw/xFcdGk1iyW1QlfohwN4g8VT9M3yx1aZJbK9drRvv+5qaV11L2DUpA5s3amTrFs0NDekYkp5Ey241ujwzoJvQNmPKBfYWkzpZiwaCtQYM12CqQeoc4ukU6pbE9chMOX6DsPRYLTrBCFw5louLumpZpCE+xhqOHz7ozGLHQtdqKKqm42h+wcD6Is9OmiqjVW+z10laOt5satm2rWpt2UyOsJWQOTuyvzz4yCN69We/VPf1GXynDSto2cHkAEQr1k/PvonJC9bDPo0flRCbF6ohnE2e4Xpu9NLQplcuUSBRwVoSIR7qDV2EawU4QtvjM4Ald0D3cG+n2zrWjzNooNQMIVOayNCTDA0r2jil6dvep6krr1ReH4M3PsTKrF3qOC3x3td1Ar/OSZtmNOJyyAo8bdgCyUuQeRoT9BEfQac/Z8l3nC3x9dCx0syZLXcM7nhzByPMh+4VM4UEirB2mZIvTA4zLED14WAFOotZmUbvQPctayYdGtHI1GqK61rycl0F3uJvFARB3lCQyAA2k3FW18Obs0cV6q7pgSIEvIcgIDCJAn/3jq1nScPnsYF9IwgfZ6F6O30wMT0fQVhbIiZ+TK/rNh6mG3zqhuruZY/wLeOJcfq+1cSAX48CGgjiRGbcEPGuiTOcau3fNfwylFgXH/ZcUUPnA0G31TEfWi5jXh1kt/CNbsadImG0BLGbC3MWSLA/6OF8k+6DNchw1oIYS41Ne4URVhXdt72DA8Kw0SM3l1hNI/0T1mPb2kZ+kN4AAAAASUVORK5CYII=;" vertex="1" parent="1">
          <mxGeometry x="310" y="218.42" width="50" height="24" as="geometry" />
        </mxCell>
        <mxCell id="2zejV1CqlXeHGlocq-Ae-32" value="" style="endArrow=none;html=1;rounded=0;" edge="1" parent="1" target="2zejV1CqlXeHGlocq-Ae-31">
          <mxGeometry width="50" height="50" relative="1" as="geometry">
            <mxPoint x="640" y="780" as="sourcePoint" />
            <mxPoint x="640" y="100" as="targetPoint" />
          </mxGeometry>
        </mxCell>
        <mxCell id="2zejV1CqlXeHGlocq-Ae-31" value="" style="verticalLabelPosition=bottom;sketch=0;html=1;fillColor=#282828;strokeColor=none;verticalAlign=top;pointerEvents=1;align=center;shape=mxgraph.cisco_safe.iot_things_icons.icon7;" vertex="1" parent="1">
          <mxGeometry x="619.5" y="350" width="41" height="30" as="geometry" />
        </mxCell>
        <mxCell id="2zejV1CqlXeHGlocq-Ae-33" value="以太网分片重组&#xa;写入缓存" style="shape=image;verticalLabelPosition=bottom;labelBackgroundColor=default;verticalAlign=top;aspect=fixed;imageAspect=0;image=data:image/png,iVBORw0KGgoAAAANSUhEUgAAADEAAAAxCAYAAABznEEcAAAAAXNSR0IArs4c6QAAAARnQU1BAACxjwv8YQUAAAAJcEhZcwAADsMAAA7DAcdvqGQAABQsSURBVGhDfZp5kF1VXse/d3lL790hISvDJBD2QFhDZCAkI8gqWAJCFSMlMlZZWuosZbkNJeI28seMZRVjaSE1o2UZt3Gw1InDMhJgIoRVCgIjS5iEpLN0Ounut9/7/HzPfa/TAcrTnNxzz/bbt/uI2t1uV+I/eqRcyiNFXXoUMyee4VFscYvY4+7WTTzRGx8fhpewp3/IzYv9DcXdbgt3uHV7M2AQnvON6W434598Hr+8G4shoLIMKnwwC8e6AOjmsaIYQBHz7uFe5v0woVGnAAIRBTCPw2LRONNHpljo7XEzAr23hUfmW2+bm9nrFjPncc5fN8+UwNkIfHLjxFrU7XQgsC2lvaujVBkUunXjHjLeyVp4BNBww3t7CJ0AudeOE9Fvx/ckLPkt7PjIUc/B7NCsBV72s4DKOM+VGC+eUZyqk6FB3WbdegTC7iU2JshEmqlJs/UMkXE8YJ/0gPauC9zuN6/TCio/0izR3pADPm6ZwpIF52n9PWBsDY/5i9icZ7nSVBodTlQuF4qY+rxVK0oCflG33eQuNseJ2iB6eLqp7Tve1M5X3tT+g0fU7mSsovvdkiEELLqQ2Y3cT0CDVdbDVCHJoi0c0wKCfXsx5v07irH5YCIS8Il4ejw8PKiVyxfrio0X6uJ1KzVSjlGcruqNuirVMtrdqCOAijocPjjd0tbv7NBj27ar0Y6VQSl30GBB1/TzMCyP5onoyZ7WX/pkIo7vK2TgXiBetGKcpDCz3VZutbHuB11CGjBuyXhZP/sz1+uaz5ylsSriwXn4Lgw72Lxm27meQgIPP/Ifmqp1kYplBzeCVSGFYCfHARbq4CcXQalFH4hwO4GQHqImGGQCp4uZcNr/FUQV92eoTwxMd0vCS13OxXkLjs/qrFMX6StfvEOrVy1WOfF5S5bWYeNMra433tqro3MdvOyA8qSCJCJ1WMcyfD0ItOhNxi3f7AXFeKhuByDGLmfODA+9GBsRExzZNfoALAv0BINkxXszn2XMcoJjic0wc9Zr7LEniqKyktKoPth7VLt2HWIvvsp7WO+zSxniq7faarWxD/v/fgwwEgGRjMuNgP20EbS4eWQdJQzskU1oEDFYcgt94Z9ty/eY4Fxlc9tYgkwpwYy5E1R5BqihF/8Gpx/GXZVUa0Y4nHaYMXwPAhHcEVqOEQfu8Wc3eLx3lTKf9HvgDjeAcBTTiRsZ4vZ7bmT7hNBhMHP8+RnmLBHWc2RML9ldwoggkiAt9wIxI18Q4O57SgiN7tliKjwD/6z24VDQxYRxmA7doo8JflYXiznGwCNspIjoBD2IyLotABBrYiRlVnKwy11du0tQ6rK3ePavBaaBGlt6cOMAcoD1Gcjp7Tvec+bRQCPJOn+MbfN93EPzxV2vMGX6fbthBBH73brP2HHELteGHDxUt0GHABOSNdjRYb2I/gFK7yzyC+PAW852rIYpa2wxcQZt6O5ujsbz3UwwQ7wdtYksTZ/zbgzD2IbWt6Mg0PkLrQaoStRWFtOT3pO5PG/C+AbCaGjlyRO6dvNndM3mKzUAYmVOJrYZesxloQMgxoARXND/xBLElTqNiEEq0ANTAia8n9DBw7hk/jPDYhhgiXftdkymKWQYOE4Yt7iC/w8X+FmMrcuFTlvn24g+U4XtGy8+T7/2izfovrsu1e03rdPYYAU8AAKAlHSmlDVDT+kJ84MY2d2336B7775BK5eOsRdGBDcDjL6ih1YgH9hpgdKD88BucvYXU8bHTPEbrRRw9SSyMNsCV9x6XipEbWJHUCUuyjItXbZMt91yic5ds0KrxipaNlBSGbgWbySiaVTT8pFE53xqXKuWlFWN61o2XtJnL1mjq9cv1ekrxzQEzUYuoIXROqmw6zWjLbHA4kAc44A8UosqhbaY6QiB40Blwl7HTA+bTQjzhVUU3dc5avcshAOpZhsdbXvqdX3964+oMTOH7/CdJTWhPx2o6LrrrtRDf/Dz+qM/vEMPPXSfrrryYn3hl+/VGZ9OtHrFuL78K7fonruv19BQNRg3qWjgrOHNQw44+Wn4zPPu1WCf1qKCiIDS/CETFFqY6M+Gld6zGNv77Jua1r89/qLe29eyb1KbpTpGnJdHtPSU1bri6vMUVTN9Z9uL+q//fgeTj7Xr7XfIeTLV6G+/M6V3358kzagDyswLVy9oBbyCgMLFBJR7OBfrZqqRDogXB/oLgSXzax9tcMHFE1E0SobZPhTSd3sPEmGQatks1EYkJdSyXGrq+eef1s4Xdmjr1n8g6k5r6uhh/d3WrXr8iScIsGQBBFK7ywIe/5wA20h78ZNbn6QTG4cLgXr5ky9wlhnn2AcRN6Qw7hyM8lm8U0uHP9yvHzz9gg5NTukntmzUL33+Tl1x2SU4g7JiemHKVlpUCGNNcU9FFmdjdlsIv4/Dx/Fw8+qC1n/tH/rkFowtRNs2mWVJJ0/YqeIckMJJE6kWjcXYR0s/3PW+/ukfv6cXX3hVi8dKuurHNgQGWWpxuaIly0irR8bJM8mQsYcgiY+B7eP0kYWelLz6ESL+v7bwEnO8BcJV3X7rZfrpWzdocAjPRG5/5+1bdO1n1+vUU5bqppu26JIN52t8dBiPEmnq8DT5Wa6DR+Y0zNx112/UVVddqnIFdSQc9/Aq2gKCivmeu13QimWsJHgvmr2Dq6h+cz7vEvB4W3AjPaQK8CCOxzGfJdr56qReffMwxjvB9KiOkaRN1XKd/Ol1igdP1dPP7cUJ7NRcVtV3H39er705pXY+gk2NIgXXLdwfvE8PDq0AZRzoPTdV4MXY25kOw06BjQ4cmNGf/+0zemz7LqJylZlio4sSBxO7NHd79KSXMzmCTAyOqppQyHSmlQ6mauZl1SkWa/WGRogbEyMDAehcvaPJww1ULtEA8WPx4nH8cFXTs3UdmWmApuOuqzljE5ITYzDvX0JjEFNT/Ornfly33Xi+BrjLLagh5QDogST0dAhiLoQKl9fjQuj95hOQQgrRwgMdOFrTh1OzINLSnn1HtefAlI5AQIttR2bntHvvpN6fPKLJmbryCmcIpE3izQf7pvTBnoM6eozciwQzYNu7280QCzIW4OAgiy0WhZoZ7BMmGM4Wc8WBvoeY99nH76X5pegk60qTQYYlYoQDTwXVqCotD3Ga0taffSIk6gKLQqcNg4qvJxljwLLWTUq84+Uw7ARpZvjlIvUwhr0+D9G9wDGs0/OeWpkFXNM7QE9LIGAnHzYeb8cv6r3lKTZEYHN+DOGZ4wY+KYQeCqs0J5/oEEdQrwhXXCITjSxl9N9sMgH++OXj7U5bnTa5lgsbSz8gfyL8osF1NCgnL3Ml4HTFYx52eRkXpHgYOMvGlGLdHDkxITveAgjTAUAHtxKZYMatTeB3QSwhCMqS8PWINHEc8CF/jXBaTs4TYgT3u64ol5FEanUO5PX6x1vQFq4YGRniWu8Hvm3WkzEkDQwO6OwzTtWSiRGCWJsFNnjTfDrtd1TPcwCPXG+rBrLoOhlq14aOSjiJTHt7I+KIa/KEWiOFY2Xq9gT1C+UukTzYnFPrrMU5fzCys1gI0x386ImTP+CcvnqV1qxeXqhfz1NFLcvewYf+4YFZ/f1jP9D3n31Fx2pwpWOk0FnWHFmBAPcAAPWWnhlgZgeJoVopBuu6wJdncNhpu3P+UE7heTqq4FZxSqTjdpU+X7awSNkz7nXB00UtY+sKMPv2YU+Vph0tWlLRzTdv0g2bz9MoMcllczD0uW6zm1BupnibiBp7/+79enLbs+Q6u3R43zHmIBDF7fCnSoxHokawK+TPgDuwycBLbTp7TUSLuZaN2FK2BhgX9ncwcGedCRNFTOIM0kjgsGuVPBQM3GwCsDlriEuCIeCecsoibdh8vi695nKNLSLKsyd8IaRHrbxDDQT17Uz53j3au22bXn3iWe15d1IzU3NB9LG/ArqaS+Ew4itZJSDMmQ+wQuIXZVzaLvy81b6TEE+CGhh970RCoczknU2BLjZajWIbKowIqbXnLeQMIlCZGKmlFDuji4e19Kw1Wn/LjTp50xbFw8MBDr6OO4h26AgimdHef/22dn71j9V+dw9cRexwooO4KhDiPxMROOUPB4GYwlb9MQbM4G5ESePvuTAEaaScC8WW8e0R4q8efvNnno6l7xXmvOaxv4GVLC2YkgVP5Y9FuRrc16iOauj8i7TpwQc1dvmFgQi0HfXzPnpz+qj2vvSSZt97X6Otmsba5DfNWS3KGxqmD3aaGqQmLjdbqnZaGoSDJeaGSKOHSb0rLdYx0EFUY8Cd2rvUpQ6nuzytUoYO0YeZH+JcudlQuVNXwjjGvVa5Z5A+hhOosC/Ja+E5wJ4B9owA+6SZY6q9/Jrqb7+BqdURc5E52K0HznQ7BJq5OuVlDueDDWMFcAlu9lMq26K/ULSwiWkC26HSkKbKA4wTzbEe+7M1XAuc5x93mG3tKKTgebrX3VwFdscXKT1tjbKJRRRVqeq2PzZ6r6OVzxrFMgeHwWWwMafOsSmMHq9m3WVn3ETXTVGOh+jCnRSvYudpXz5s3fdtNG+3P24SA5oTizW+eYvO/dIXdNnvPajT7vsFEFmrI3DStmB1Co2zLteLob0TuRXPWd5bBLtWtapT7rpDm7Y+qlV33ab2GMlgivGDgxGvoM6FCykIybihnbS5y+QVlAbv6R9VvAUHSWFP5EIpS7DQX+jaGJy3p0Q063SXcidPK1p77bW66oH7dfq99+jku+7Uub/7gG64/yvKly5GKpFqeJMZkrOj5ZKmcYVznGk59QBKA+bMVKo6Uq7qaHVIMxhotGqF2hPjavuLOETbzRpxu2q79sIxFN+gcIBIF5baO1nUrEGz5W0X468M+HkW+/l5iA00vHgwSEdY/zrTJH048PJOvfnNR7X3lZeCcWvL1dJpq1Vbvlwjl27UwDkXqXLJ5RreslnDF5yvzuioWvCoVU1UWXuaxjd9RqMUSeUVKziMzycQmv/E7uKDA93cd7datxg07QxCamKL9ibkREfDLRNsArnn+OTghVg3+iYUKglQDnC+kDylPqfJx5/Unme+r3dbc1rL+6IL1hGMSsTvGO9xgTZ9+TfUnppRPjaiyuJR5bt3a/vDD+tHz2zXyjPX6uIvfVGj556rrIYKD43gjgaUEQVjSyDwzeGtsC0TYbsqvBrvIOfYE/w67ikkkMHxOT2IsQsIcaZpzlpswb1xwDW0Pyw746nkaPWRw4oOHtaKgQGtOX0NlRl6vOttTe87rPSkJdLaM9Q+5xy9M3VEHx6aUnzxei2+bovmFo1p3a23aGjzldo3fURvvPGGagG7VGU46nTD7As49rqbd5g4e/gSFJVC6m4E3fv/hlYs+OOxM03/sBIRyRLm7Kl8kUE4I8gw3trooFbfdLNO3bhRpbmaXnnkm6oenVFipcaePnz9f/TkN76h3Y/9uzLqjbHlp6pZGdPY+g1qzXX0+j9v07Nf+0t98NRzcKzwQ0HS86gXzX6BkBTiUmCkeR6SS1r4h/fgB4w0TyPvbr8bvoCzK2xHr4KTYVgHyOzwgFbdcJ3O+tw9Ghgd1/Zv/Y1efvopVUlDEouOCN84uE/t3e+rMnlAUc2fZKg7nN0OjinDxc/uOaTm3kOa3X+A+/E7uExnBb2YHVohl6KZ2/214qcDj3oqV3yYYhEETLe/atsZ+mtFzKUd5mxYbv6k36kOa/mmq7X+3s9r+LQz9eqO5/X2ay9paMWEGuODapRcCCFBrq34m21rltPkRrAwVL0zUyqNVLX04nM0cdnZWn7RmSEnIzdUBo3kkQGaf6Uyhmav/acdkBnZJKdvOpexcZgCNoeI3SOLSShD+QqKnQIA2DfQ0rgMMejj4LiWXbJBg2eexWSqtZdt0G2//Vu68c++pmtu/Uk0A9XguL+Ip0TyBB3w721jcLo0d0w/2vGsynioi+68RT/11d/RyisuAmMCF1lAC3hGx7YYeA9e/nOssCR4BFTnP3j3vGihgqzYOznLzKnI/KspSWnwCC7ySMVCKWj3F7Uayt56U+2nvqf2499V6aUXNPj2D1XZ/aHa+yc1uPcDdZ58XOlrr2l0tq5470F1nnleyXMvaOVMUzv++lva/xcPK9n1uhLc8+yjj6r5L99W643/VdwIaVxwJgFPo9brJsT2WUHdUzPKTsBE8IzyZo6KtVSb/ECv/f5D2vdXWzVGoePfJKwSviyGOCeC+BCClXQMcTZJMdrBZ/ckG4gsvFgEEH9ncr5iDvp/VnAN0iS/iqkej8CwdIjau0Ex1GyrCtNK5BpVuJb4R0zk4R+crREFIXa43BRXNFmpaMMDv65P3fdzZLL+PFTBfh1Z0MW0kmjgpHH0Et/rFDgUJg50UgPb6BJRTFgKwSMEu0WtlpaAwOJaSxO1hibqJGkgNdokIYSIQdaHIHwAUVaoyqoY7xAYDYRzXY0crmlitqOJJuVmPeNOu0/uB11Xdw60tsXC3cMA+iEM5NjokJJlS9lMFkHB7cIpalMgJDbA2jHt/8+n9NKf/KmOvfUWop0L2WVK+tBio0Wauh6AAOuty8PgC2jh2xR5ji+0TaTYin8I8Zx/1grNQgORwpHYejnj+7ikmAv+rzAHmoudAMkTnGsDr40nXIxL33T/b2rkjDWk4UPsxH/mba4JBt2SDh3Sgaef03vbn1GOa0xbiB1EnGaQ3qsUPjW4QLIugpABWInnIbMGsD4BruIsTn8M6GdBVr3+R4SQ3rDPJa8RDXruxtB0ed7Mi9DrLuqbrFqls6+/XuMXrlPmjxrdMsexlhw2h9IQPY8djesNafoYciPXdEEcdDFQgI7DrYB0D1Ivwob1vqElzsMW7Alo+J2x5/0aVJWBzwRO+3whiXAkEO/9faIYl7iX/EujpCkVAgB3lLCHPJP+D4OMNBJaZlc3AAAAAElFTkSuQmCC;" vertex="1" parent="1">
          <mxGeometry x="660.5" y="350" width="49" height="49" as="geometry" />
        </mxCell>
        <mxCell id="2zejV1CqlXeHGlocq-Ae-34" value="" style="endArrow=classic;html=1;rounded=0;" edge="1" parent="1">
          <mxGeometry relative="1" as="geometry">
            <mxPoint x="640" y="400" as="sourcePoint" />
            <mxPoint x="540" y="400" as="targetPoint" />
          </mxGeometry>
        </mxCell>
        <mxCell id="2zejV1CqlXeHGlocq-Ae-35" value="从缓存中回复" style="edgeLabel;resizable=0;html=1;align=center;verticalAlign=middle;" connectable="0" vertex="1" parent="2zejV1CqlXeHGlocq-Ae-34">
          <mxGeometry relative="1" as="geometry">
            <mxPoint x="3" y="10" as="offset" />
          </mxGeometry>
        </mxCell>
        <mxCell id="2zejV1CqlXeHGlocq-Ae-36" value="" style="shape=image;verticalLabelPosition=bottom;labelBackgroundColor=default;verticalAlign=top;aspect=fixed;imageAspect=0;image=data:image/png,iVBORw0KGgoAAAANSUhEUgAAAPAAAAA4CAYAAADD7nVLAAAAAXNSR0IArs4c6QAAAARnQU1BAACxjwv8YQUAAAAJcEhZcwAADsMAAA7DAcdvqGQAAEzASURBVHhe7b0HvF1Hde+/TrldvfduWZIl2ZLlLncjCDYGmxKaIQ/yIIUACRDgnw/JSyGEvJDkwScQPjbFNtXg3iiuklWt3nuXrspVvf3cU/6/75o99x5dX2FsbL2P+bx175zZM7NmZs2atWatmb3PPqlisVgSWCqVMuIIpMvzhGfpdNqvAcreKKAReqwRmQakz6KVUgTy05YqZRTCeErpgpVUHkaq8SdX5w7S6j303MnhhDZdiO/QHOi2YtkcKN/RIm5Xla52gFQ+VLesJ8s6SWJlxEvgjMoJJOUe9VT+24Aqe9VUR9JQBR8BNDeeWYL3PXcQhgken0VhJX8JbfCH+Q1/ESJWhK6S8n5CqxECjlrz+JyBugu6p5BKW6GQtozGg9qVSuhiBlEWq6TAHR0dVlERGBgVlcrlCvtGhnxBE8yCxCRp0GlX3rwVUgXlSHklzCkxiCksZFDgkmXhncO540Hokv58ZjzlgiVpDWKnPNEcMDNKRgEP+EGBkzwmW1eh0YjDtRQYKHVXYPojoeB1wuVZobPd3xXaFOizKiRpWIuox1pYX8L/MtpYaAMJCa/gkzMh1AlKDpYq6Tpwkcy4ONJYbBCZJw4lxc6VIMRpRaHk3EBRShrjVCojmc1YR64kPZV0lgrSTc0fNBUKhdLZrOkbycqeHTRKMaEUJ9bnA2EvBAUWY1yJpQxg5BN56VLg/xsgAXZFjTRDlK5dqVFAYoQ7CjjpKMR8aHJdAAm0QSjDcUgG6jhxsBGXAMSyWA6U4QQN+R2hXYG2KkOSvlyBuYTGSGcCKo694kU5kOEkBprKqSrLdghRXAS7otAPpbG2FCVR4k5d7k7L6w1FdczCnNBWFNmZCmiXUkMTY83n8yUsLZYXcEv1e6G4EXCvUGC5IVrRWdjSGh4rrCurW2YxRvnEHckcoRow6f8WJ6AZ2pikTvkRBKEidAlTLPeccmTBGcmzDKZblU542bGr4uvBH5TtrDSpAGsIRKVkJ9E5V91oAtXbSzKJysvP1lGs56BEF7fPDdA/+uuxgpOiD9xoSbKCvAgVprZt21Y6cuSI5XK5l7jMvx+KzAqW12RUWT7VS2Oqxt6GXIanvQQQFFh5XIgx5EZH61xDunPvE9JIktPiylsOIISxgI8P8RIUQWdW2XDK0Xqo4nCmNJRjhYbOVu+VQRRPemOc/PlkdAN6I8hfcs3qWthi7LmJ1vHZWS6mhGt9qsAxwuVZwJdPQYLk0dmxX2uAVobBvBLTszxlsShlwwb1sfPHj7RKWeaM5CT15S9/ubR27Vpra2tzhSVgjTOZINhvdOCAI5/qsGKmzkrV462qarAURPsJ7YuDHLD3T1vaZaYgPDFKHEyrENsNjuOdC6BfRSlXYAgiDgS4G+VphUhP4lq7wCtoFF4cEMBT8LqkkzzMl/+HQx5KlewqLwNa74LyMuEmSedPuHyFQOvUhN+oR5iHILZx7AGcQneXcR2jAofDPr902gMwb46epAFf4DyDdj0r6bMcC6BP8uBKAs7D2M85AshNaXworbZS2FVtdKW/JZs4bpD9xZ+810YPrNI2T/P3wQ9+sLRr1y4bOVJaXRn2IfHk+ffBAnMkVZBVbbU6O9422HL5GutX19v69JE1ljBzjMUpNFYvxV6ZIcOsRECKib/GpxedJQZeK5wgXIK4xxOwhw/TAWaEWNNFWSmlfQAsvghrUA4txyrB6RKO8kILWRUl2wtvJ7aVtK/oTAWmPEKCo5i6pGJpvP5NsV91ylZQypQfqsW8gAX4YZIrcxijGKHRkA4LEyPoagsF1gdzGZIJJMtU56KgkTmfykcYy5Oajsp1yPf6IRVzzxoDvwuOU1VEAkV3IS85TVm7pvLIkaNWU9Vh//rlz9iMCTV+TuMKvHfvXvvCF75gEyZMoKoDSlyuyD0pc084WO9y3O71In45gEN+rMt1+Uk4cXm9clcf1yLilNcln3SKMv01y1/+9g+X28Yte+ym62bbLX8wW+VxWjiHVn3vA3pdFRx8nokVuDxbDLwWOIhpnoVXibJhOlDuIGS/9g8lIm+URtGLCpkgyZ7NjommSCWirBBaIx3i2HrkSZd4R4xQP2CEMlrpyge6cELMeGLfL4WA6X0LwQ9pEscP/M4pB43guFyGAlK0nxQ6MNsJahmQo4wELRxoEiuogU5ns6uZM+srPyaJk9bOGgO/K05A0pWIZI9/4FDJvvGt74veNvvqP37Gpk/sZRXCSd1xxx2lPXv22Le+9S2bOnUqtVzwgXKliYBiRPc6KpYrShLK88rrxzTxy0HEo69sVqpV1g5AmlCuyBEibuwnCkdbR8H+5l8fs2Wr1tl7b7vK/uiO6zsFFDGr0D451FCurEEnlb4qn9n/6wX0UpBbzOEFB23y8kUH4xSFpbxVpJN7pQk5JeWxCEUlCtiZINScsLMlIJHKqr0w2mI+Z2nx1EWd+sLmJJ407dAPBPhhGXRkuF0R6sJa2FosSQYU/zZz2RP4gSlVnXbNLwPldkkaTyFpk7aTcZIVL1VbiWCVWEZoquT3Sdn2pS3rXgu0IyOhBu6oywVjUlt4XNT1LMcIiHhk3r4DnVIapSSpf47AKUkWGryM7fs67HN/8xWNN29f+fvP2oyJfdwCR+rCAMugezpCVJpYTjoqG6G8HvkxlAMTGPGIY4gQy6Nlje0SA7TXXXljfeJ4DXjama92NQFFXMhUUFZEPZsEVm4PYhrz6EE44Zq8cxNQLSaGs7QqEVklAioksFXQKBPFHZa0dIwYnLSULS2+pMUzaOVgo0LjyCqdUb1KjTkj4U53KBZ+hcozqpPJaXEklkBkpDyZgtrJ531flVUeS0WF+qe9tJeFe+MZhQopNFuOTj71MA6CqQ6x65Su8ei9zJVDmaIRnUj7fOqi2K5xaIFhnIxH7qOnue/pc0MbzJVANIklWkjUmi6zyKGygzuuNnUdArSGPlH5lNoq0qYqs3gVcVHBUyXS4YS3PIgGzxcO7ZyTAN0ar+Q0I6ZxLUFWQGJ9dslxcF70BChJT4oGRAUiLs8rDz1BzD9b3dgfFj7mATGNNS6HiB/biXXPUG4v00yrqYKyxR9dM5FBGLPKyGJxJZQhYAWoEwLTeq4Cf0xWVsQR49KX8jzoII11AVNgKEEyYaRflPCIOE2XJWW4pbjQoYZC7ixWWSpdqRrqJ4tQSjjVRApF8gpqqyOv9og7vAUY5nOBSwCofx78KWGllUwo7TGk1DGxt0N9tRP28hBUafmiBFLtgYMRxjPwvhkWg/SYfhgUxItuBsO9+7TmTHFReWw5gLw/1EXfgSZoDjJEQ8yr8mlDddWd59MOtCEXYTwhxM8Iod1zGaDQT3Dc8EA3Yy0kIQBK3pl4KaAMea3KDQ0NduLECVcQAMU5ffq057e2tnp+tJaURYj4Z4NyRY5t0N+xY8fs5MmTnflA98UE6F4fKL92QECdAWdOAlOadoXVJAs9VZKwS3lV5MEfqcRkeGHIe71DoBGJlhIVOjRmKYpIKmoSC0pTLplXSsIqNNbmnCrKoZUqZkK+yC1lsSXg4I5LyJVHmr2U75FVx4VCbbmwo/jiIzilygpvxyorFYc8bzeJZcjlFqhMgk8amiL93QOoBBTEzyKSPmKbLbm8HTh62o6farGitgfcp8dtdKVmHLSBQnf+0R7zh22U4iqd09Zo9556qz98QsotHOQhBp98ZjrQ4cuU+tAy7+1Iolw+An/oJwQyQ13hU9+Dss9hCDxCfQPtGJ8CsqAy394kAWrPFPgEoiIcOHDAfvSjH9mDDz5oLS0trjDNzc329NNP2z333GPbtm1LamjYmiRCd4jtx8UipmMfQCw7dOiQ3Xfffd4fi0ME2o34hLhQRMUub5tQfk2SHJ80GOB/jpGECExcYN5Lcc5F0KeUqZCqsKMnm23LzoOWy2etw6QwmVo7KWO8dW+DLV27W2GPrdi0x7btP2GHGou2ettB27jzsJ1oK1q9ENftqLc1W+ptz6Ema5Ei7zl03NZt3Wsbth+yLbsarLE9Y7lSlfop2KYdh73dxlzR2uSNNDSarRPepl3H7MCJNtu057DSB2ytwvqdB2zdNq4P2qlWbtL9ZkimIpkHqVCYJs9fsnST3XnXg/bgw/NdifCKS9qvYxWp5vOgC7eSLDKUe20tCEi5EidOtNj3vv8De/iRX1pre85xKFdDuqZPGgCVyih1WCTa2/K2c+chq69v0OKoKl4P2ZWWUIFrXAEPlPFxroIoUL9pzUVGC4671DwpGGlxRhC0dF944YX/C2t3yy232ODBg0PlMmXYt2+fPfHEE668c+fOtaqqKr9esGCBrV692s4//3wbN26c1yEfS42CY73Ln6/mQRHym5qaPC+WAfRDGVad/p566ilPX3nlld4fe9/GxkYvpx3q4k7nZa3pE+XGraO8vF8HTRa0YZl+tWiHHag/bDOnjLSLZ0z0Aw+GymrdOWeKo5IDiaick0CPWJZ6WaWfPfi07dt/1M6bMsEyVdXW1F6w5xZusfseWGDPvbDeVq7bbs8uWm31DW1W0Wu4fefuR2zxizstXdXPjpw4Zd+/9xFbuGSLLFuNjRoz2B55YrH9/KGFtnDxbtsgRR4+Zrj1GdjLlq/ebnf/6Nf24uq9NmLcGOvVv9aefn6Lfe+HD9mu/ce0ePS1hx9fbE89t0a4e2zVuj22aMVmW7h0nZ133mQbPqg2sWcKGkDkl3/4hfip/HYtDrkOqaR8eU2bW5btUqAnf7HQWts67LobLrUO9swYgKSuzwXKJrPfqoWpKAHmTC0CCt7aVrLdew/ayNGjbeKE0VbhLjb1Sibj7K55QRPapv59GyCLTsWclP3ZZ5baypVrbcy4UVZXVxO8fP8TqK/gpwUIIsI4vfnXN2jMeIdpuVvRSzxxMm2/fnqxdKVo866/3Ib3r3Bzk/YVShDjCFGJYSjKQhzziEnHvSl1d+zYYY8++qj9+Mc/9oDSHz582Nrb223Dhg1uUbHkhIceesh2797tdVG8WP6DH/zAfv3rX9upU6e8bfrgAZMlS5bYz372M69LvHz5cl8Ijh8/bo899pgtXLjQHn/8cb8+ePCg0xPH45MW6YYpymbvS9wJuJNS5uC+whTKy1e8cxOguVFW9ukFG2zVqs027bxJVoO7Kg3YuvO43f/Qc9Z4qtluvHaO3XDNhVYjV/nokaNWV629bCZlmzbvsacklPlChfXuN8hON3VYn15VVl2RtomTRstCmR093mhbdxywxSs2+KLWt28fWfkKW75ml61Ye9hONhfsmfmrbdfeE5bV4jlsWB+rkDt96nSrTTpvhE2ZOsEmjB1t+/bssZYmeWROOx/SSlmEcM3yVzLpjDVrg7pkzT776aNL7e7759t9jy23B55cYTv2HreLL51lA4aMlNdQYfc/udh+cP9ztmDZdjvZUtTCYXasMWfPLNlg9zww375733z7wcNLbOWmg66YKO/Bw8dtwfL1Vqzqb1bdP+wN9d+uxW7d1gP28yeX2cPPb7Sf/2Kl/fjB523Bi5vktne4R1wtvk46b7xt2l5vTzy7Wn3So5Qc+hOl8XnxD/K6Ll/3ED46AenF4Q+Hab4RkJHBm5Q8O0Ii4EC8RpiicgJYwBdeeMGeeeYZVxhcXZQM64qb/cgjj9hzzz3nFhLcX/7yl/bss8+6gqKs69ev93yU+sknn3RFjXVRyvnz5/ueGpzYNwEr/5Of/MQ2b97s+Fu3brWHH37YuHeN50CfDzzwgHsE0BTpBbroD3k8bZWRK5LRihxGqeH7RUFsCX9h98PaG/6S3fJrG1w4klCWx/50z8GTNv/FzTZ8xCibPHGEVWdl32RGlq/aYw3HGu3aubPtXW+/zG6/+TJ7x81X2yUzJ9uEUbU2YcwgKXFaC1iDHdzfIGs0xQYMHmTjxw6y3rUVNn7cRI0ybddeN9fGjB1n6zftF7/bbMSwgepruKx8H1u7caut33zU9u87bjXVfYU3XFZ2sI0dO0TpCqurrbLjDQdt8qRRdvObr7fhQ6U4DvAXm8oCGJJYXfaoi1Zst/+++0l77Jk1tnLzIXvkqdV298+esY1b9mmBlgtYXWsHj7XYM4u32HNLNtlPHlzoSsVjrvVyj59avNHW7zhph05X2uPzN9mP5UUcO9Xu7R872aJFZ4f9cv4ye37JSmvLdzg3i/LFWSB+9Mh8u+u+5+0XC7bYL55dZffc9yvbW9/kMlEhT2DM2JE2YvxkW7Byu23fe8TnX4Xh1Jxx6AOLx7d/QkYyV+ckCBAPBYmsf0uuyO0Hd3NQZw6zEgX+TYASoKgcLKE4P/zhDz3m3nEs27lzp1vRsWPH2k033WQ33HCDW0+UjX3sxRdf7C76VVdd5de4uNTJy5dCMWlr1qxZ9pGPfMTe+ta3yir0dWUFFi9e7NZ2zpw5Nm/ePJsxY4YrOooPDv3Qzvve9z5773vfa8OHD/d8JikuBADsL8AMhXDAoRgFIkROwRTwyoLP42sN0BRDAk6fwi55EPuPn7Cx551vtXW9fIIYx+GjDSaf34aM7G8V1SaFyti1V82wm980y/rVVUnoWq13/0obOX6ULV623nbsOSFDUuWHTnByxdrNdvTUSRsohe0zYLDtPdhiG7fWW67QYa35Zhs+eogdPnbU7n/41+pjhCx4L1nsZueXybqfaj5tCxautEVSlJa2nN12+3U2ZFgv5ykhOJdQC2+5lncleXviyefk/jXYzW+7xv74o2+2t71tjk2a0M/61GoR1YB5eKNXbS/7yAfmybO4wuoPS1kPHvHbZP361NnkydNs5NBR1r9PP7nqWdu7e5+daDjuO9UxIwbbW+dda6OGD7Gc6Au3vGRdKzJa0Abb0IH9Va+P3XrL5Xb5pTPscP0p23+gWTUDr+v61NrYCWPtmBaK/douFPybLNAewGUE7rmb0ZV/TkB9FjUYQkHXebmFefJEkdMEisLLKjAKAvQRI1DM22+/3ZV01KhRrijsT3F5ibG0P//5z92VxnWmLntZrChWFzcXdzje1wWHPS8u+qRJk2z8+PH+SCcKHhUzftECt5nDrVWrVnl+VHDKhgwZYrNnz/YFpLq62heVLkCJk8kQA9BXhJLaYYLCrgdbC0tcp8BP4tcz0H9XOljgpuYWK4g3ffr3kwvL4U04VqmuFD+kbI1trUFplNend431lRBCfUabw9reGbvhptm+31u9eoMUCGVKW2sOBd6khirssV89auu3bNSiKLd8x2FryXOCXbTxE0bawEH9bOeOLXbhRRdYTV21XHdsKKfZBaVr7ZrrrrE5l11hvfsMtl89/aIEvz3hIXCm8ANUP3K43vr1rbZLLz7fzp8wyG68Zpr9+Z/cZhfPmmRVGhPTOHTwQJs+eaSNHTVI46i0kiaIe9Dr1m61p59aYDu3bbW203Lp2dswh1hF1evdu0qexjDrXVMlHsmYJP1mxMs+dZXaWlTakAF9bOp5o2zc6OGisNLyOfFRdVNyxzLZtPXvV+sC0djYLv4mC7v6fun803f3vNcnxP6R13ALCRLFK4RT/xH8XnxyfVbIS1lQtgEDBrgCv+lNb7JrrrnGLR1KhvJh5cC75JJL7D3veY996EMfss997nP2wQ9+0F1iDqVQuD/8wz+0d77zna6gUdG4piwGFB7gmnJCTU2NW18s7J/92Z/ZF7/4RbvsssscL7ZBXG5xu4AJR9wFLPkS17Cqkk5CEmlD4PdE0zzcQOxqzmE+dV5poF5YL7vi8mviGEKaZYUHLXgIQwzwxaSYb7cqWcCZU8Zqwoq2aNEOWU4tfIeK9vATG+zO7zxrh480W3Nr2r/wPWzoCM3DbC1szVbIScHU3oaNB2zX9uM2Y9pszclt9vbbbrIhcq+3yKVdv/aYyXip7ZTNu3Gu3XbrPJtz0Shra2q20yeb5UFx4JORVauz0aOH2q0qT4meR+SeHtyP1QsLDHz2kPATqJKnMHjwADtUf8RWr9pmR46Zbd/VZs/P3yUP4bSfdregPPk2a9eQm3Ipa5PANufydkr791Xrd9qBo6fsxjfPtVvfebF7Fy0dRTvZWjDpoTwKs90H83Zae+i2Yo3tPKAF4xTcN7nTolt7+0Ipa83tJXkT8DMreZQL7XQGmchzE9llTYT7GkQpLSj2m+7gMUevVg5eeUBGg2RwPIhUQoK4zK3OYvLMgrJcZjmFxoLefPPNbsnKFYDJP3r0qC1btsyV9cYbb3TFQ7nWrVsnt2O/u7QDBw7020m42WPGjHFl4lALq80eeOnSpd4WX5agHvvX/v37+0LAqfXKlStd0TlRfvHFF931HjRokLvcuMu45ygx9MV70pyY0zb78d69e9u1117bSTv0QS9prsnOS0CfemGbhOmQzZoyymbPmHiGzfCTaKXClxq44i+BzovfFkJbXRXLGwjX7maqz65eiFPWcLLV1qzZJhezyqZPGSkrVWFZCdfAgXXW3JS3JUtX23PPL7BnnnnWli5eZUMGDZOlrLTHHntE/Gu2A3t323VXzbbDB+XZZIo2WXvfJx970nZIuk+cOGrvvH2u+L/Dlix80U4cOWSb167RvvaoHT28T/vrC23eDRfYo/c/b2tWLLXW5uN2Uu7lmuVrtS/ea2vk/Syc/7ytXr7Uck05u/7qy23McNx8Fk4UGGBcEnYJP57O0KEjbf36zepviS2Yv9See3qRHa1vsFkXnSe5WmpLVmyQB3fMOloaXc4OHDhobY1HberEofIcCrZ1+17buHaDrVi21nbs2mrtrSct19psI0ZOsnt+9IB9796faAE7asdPHLMFzz5tO7ZssIsvmWNPPb/Onn5+vp1uarRG7ZXXrVojb+6Q1e/bZTdcO1vyVKVFr8NeXLXD9uw9ZHMvn2KTxg20jCyzz0i89xvUR5cva+teW8Dsqk8WVg7Ujp+U/D69xA3LvOuukGfB47Hie3wW+r/+67/sggsu6FQCAOFnj3rvvff67ZzPfvazVltb6y4zrjIHU+9+97t9/8qhFCHeyqmrq/N9L64te2YmByWePn2643C6/KUvfcnb+ulPf+puNq41bjT1gb/6q7/y/e/dd99tW7ZscdoILBJY97ysPnTjOn/60592pQW6FBe3FOHSSl8o2Rf+5UlbtXK13XHbZfbR97/JLQdl8Aq3FPA3cURZBLrY8bpB7I74QEOL3Xn3o3boyHH7xJ++U0I12I1Ahfa/p5tztnrDXlmvPbIsHTZ2xGibNW2iXMZKW/ziUsuLb/3797ULpkyybdsP2LGG0zZjyng7fGi/HZCVLmbSds3VF1jDsZO2ccNB7Sgr5KoWxccOuetpmz5jkg3WQrFl0yHbt3+P3Oa0DR02Sos4t/CCZ5TitF4udUU6a5dxityPJQhvRUS6ZZDVSHVZkLy0+OChJlu+cpXmslHu9CCbecEU7Vv72t59h2zD1kOqlrKpk4drcT6ucZ+2EQN72XS5vaVMb1u2arPt37tf7v0AG3v+RC3Ae22Q3N5xkpPtuw/avsPH3PVlEckWW230oL42c8Y023fkpK3csNUqquvkmo+w09rfn9biWFVZZTfOnawxpG3X/qP27e8+aqnKWvvY/7jZJoyu9fkPyoo7TYJZ4c5EdNDPFajfsHboMmVb95p99m++Jrpz9pV/+LT4VSUFLgQFxiJ+4xvfcOWKEJUAl5aTY6zniBEjXLlQHCwzZVhCDp3Yz3ILhz0rOFhLAhYbJeTQiXrcMyaN4qKsuOAoNPtnLCrKiSJikUePHu3XWGYsOv1hbaEDC06feAHQFnFRWOJyBUYJm6XAn5cCr9ZKfMfb59gff+DNrsDcZWKKXIEVcAkdSIeqrzvELgHmbNHyjXbPTx+3q6651m6ZN8t6V2etSuPAmctrTPEJKXdfdSHddmvHgRXfQoq3QmgXJ4weuMWCl4E8hpwAzgMFf5QxMTocLHFNIuISOPlVE45PBkYKQNR9uyFBC6oEdWGfTgl1HWhcCW+aTIW4eBLHdtnqQhf7XOrQJ7ek/EFxIVAGLXgxnFbTFHXJr2DeFfuTWppcqkEBwRVdefCsoz1vCxatsfsfe0Zbij+Q9zHdKjM8Cw6PnEL/7/xSh7d6riC47yU/g2BrmJECl6TA/1sDz9s//+On7IJJtVq48+HrhCjB17/+dbfAERD+3xfAGjRJgT/z1cds3Zq19oG3XWIf++Bb/IH9qLAeMWRNGNeJ7Kj83E4cgUOopxetsiMnm+zmeZdb39pK7Y1zLsjFVIVoQ1QR9GArvFZCpm8ByPEMgtRIE+2PS6peWpoe8PWp4I+SOl4ZgADACxUlLcasTuxQ5leuIGSUt0VZDACLZQT460A1RRzWcOVK7K3oT0hxfCg5OPTjXhL5YgiKSpKmmcuUPJMAHPqotvfJDTR5Gv4pt1Ra39LSar9+dpllZWCumjvHetdmtBAKjyeehONAXULS37kDFly8GM2b+i5YpW3eX7C/lgKzI/7y337SZk7qLT5oRCgqritWE6sF/D4pL5DKS3TFiEq5fUXMi/aUjJT7fn5QIYb5XCEAWtr5Yn/A+F1mjrqvIqj/arm6N869xG6+aa7VaevC4ZUforiQBxsXvkEVbLHfZlCJN9EJYYQ+sETh46wGi0ldlDssWAGoE+xmF4Rr5w/Xvr9NbKuSMTjvHAtQIumfOqFueW5XD+QznnhcE2emnKrYNzjlPRBi24RQA+ULitvVNyW0jQpr3CK2Uny9/obL7frrLrZeNSgtPYIdgFSUjdjyuQQeJMoUKySPYe6cM3K1giel8bFY8pglSovLGZU4Qtg7CumNHjRQLFWF5iIrprgrhBL7zDJNUaQUWO4U+cqva8Kr/0MIX2Ggf9w36BV9A2oqrEqT5TbBnw9W0KRBn3+DiHHw9TjV4/zS1Up1dSmQoqVZxbmSupcISZmHMF4WsdA7Q9cVCpr8kRfQ+TqFf6VCfx26IgR6cddRXhB9DMJwanjfs6xICEHpY7uggx3qwmfJIHKYtIVCex404itTxniTch6pZAliPLRFcPqZWv+GEksB6i48FTquL2KSB6WgUzs369U7oz2xSkRb8A5CHX0EmsVbv2Xl4zqHf+ofxU0Xs5q5Shkf0a4Bcr5Q4IHxZCxwiuXKBf331fo6+J5Y8yI/rDLNqqYsBAJrS7k+XLZJMH7nAawhPocADTJn8etiCFUQaE1cvlITm3WKvJTpYi41BqaT7WGoBXRiOYBGOBOiECAyQelCWvnOA1121vT1XwF+ccdVPCQ/KqZCUUyNf8FTSAA0V0aUEr4ngfzYvuOoQ58A+B4sYuibEAZLKSoYYrDUrgLqShysd4CI0xX4Y/HTYqiMFBth6olW5wQ0KO4C+o1wZsnrDgnRRc2tf21TK3NWbEkXedIsLCxQjw8l4xu+CMC91HL4vVFkhsGiqsDusUZj7dOhXUW7Jj6nfWVbmxkh126Wz5l1KLQrtMmCtKm8vf2cBsu1SS/aLC06Uu1y+bih2SZB65AC5JRubw14yos0Zlo1f605y7arbifteUspP6X20h2tqqugclOetarNVkmFcMhLdzQptIgX5NOuaGlTPx6rXDgZD+qrTdZKwWlobxG9BOGKf+kOAnQn/YuOFDwktKothbTaTNOmQsrphf+MB1zVUV3vl3EwJ2rb4I3TQlnSpreldlpbFMcAb9Sm9xlo9+B9S/g1br9W22n1kxU/s/BIvEuT5/XoT2PiWnmhnSRO5uhcBEM2C6It327ZfN4GFXLWt73J+hTarUJ5LHOcC6Q+9KEPlTgB/tSnPuXvxIquNArsLt0bHHB/eCtle0elPfizlXZw5Rp750Wj7R3XzZJLLeFhLWNPoWXZHw7HD/OFH+5Q9mp5QL1XughSJ+mTB2BZdViBMRkFKRhPRni+7K3f1sBpVnB3VfXoz11wytSGuxrEJJMyfxk2QcAbONPUFY73Fa1yBPCgh7YFLOpuJQXeXkIrdXzBFz4RWYDH0MgFgfYTiHxFxuA5ZbSBeY5l7hXq2pP0gZ+hPlwuwYvjT+jz9uENdIMTA6D6PNuJ7ywZl8VSU7rmsSzfUik422JbjEV14niT6JyB85ZORZfGs+9I3r5+z8+to7bOPv+VL9mwqSMtXyGvJJ5CAyhu3PvGvfEbHXAPO7I5qyhU2qDSCBtw5JiNP1Vv/axN8yaroiEyZbkMtyS4xSCHVTzg0AvnEllAnmClTy1zGq665lRIgVNyIL0cwGUjNwgRLmH4DLXYlzueK4+Li4M/NYZbCg1Zuc7Sr2yFHCcpWkHyl7IqoeNO48rSmlbqVLvkjHo0IPcTevw0VUkJtz+C5z2IJpHuDweoblHKUuDhYUq9HvmBWgQ3aSH8celpxh7KHZLIHVG1EcYU+RPcWn8kMGR0QkhLxlQBnvOUEf3mRRNvAmW/mxUvwqk6rchJ9sMb8SOwzMeWYvFSqTv4KLgvbjjLXXTH+QP8FiP7SNHaofa4y8AemL+S+ub1QnAqOubOp0666SX0HZU7zKJGo04832sHOsH18XfmB3BMbyhgBEDmoJf+qB927l5f/Cmm+1qDvKPMiOH219/6P1Yxe7IUWPShwDyPzFNTKHA8yIqWGEHqrtTE5S42eeCTF8tfDVAv9p+X28D17+oJUDMnUvtq0sbKheq9cYuNPXnM0r3q7FT/vsH4ql/cEd56EADmIUTKlEDw9AsKjYIjXBwO+aQxgX5SyN46Y3m5N0VJV0GCkCZfShb2g9zGyLsicTsnla+wrIQtrwUkVSGewWPRh7ikMxWW85Ny9VDqUL9SYvhZnfVvJWX8N5wQT7UjYQsClhdN7J3VlfrjdJktHt+6yhSDUOeYI+RCCwHK4Q/+u3Cxh2WcLAj6E7lBhM0qoUMYnHoyo/HrekAQNPUhfFpCAX1/KUzocSUuykXlXT7C4H5tBwqra5RGrXpbjCDDl/jbvUSk8my2XHstLBn1HxwI8JOOdQWmv4FEY4KvjJe6MC1VqHB+0koBnsh74T1YGYWCaElntADKRfUtcCbrc8IlB4HIWoVoo31kDn4yTl/iVMavIpT8AA9aslaRrrZ2ue6VFfCQ/hiPLLt4waLEIVzKWFyhuorGlGZBU4DFzA3jUDl8q9AeF1o60EONu1Jl3NvnFUl95c63nzhphUED7Y/v+m8rXnmpFSqruhT47/7u7/wLBVFhUcSoOPF5ZYC8cgWOSh6Vj/10VLxXA7Ht2H+k4dW2x8TzPfLeYmbV9m320Gc+Y8NPnrI5d3zI+t38Vg0A4XMpCYskGo3w4cKQAaexELDWaQBXAupkkZbg+DOq1JE1wAXUyuh1fJaE6Pcmle/P2wq/gOuma2ROguY47iYLh2S6UmWIjSdCGf35HCgNHVoIvE3yoVVZIQ9QXdJyv8MztKpDEdrJ4uN1yPeLkPb6uiAGma7wBiJ4nwq0SQVocj5RyCIBD5K8tPavxBT6ypjgVyogzf7UCLgK/kIr0YcwY0GZD3kVzmP6on2fE5pL2nRQf4y3BI+S8VJfC2cYl/LJkxz5tyo6x0Ja5ZJRXQRcaAGPav7eGsXQ72MhM6FN+1DvCxIZF3nQ5vSCL1znq/IZpzdImXBSmlPXZOon9DoudACMAzkRICPQiHvPGwzg35aN9uMvfN7aqyrtj+76jhWvnquhSoE//OEPl3j2+Dvf+Y5NmTLFFQZlKVcYlAoLy1NTEborVlRwFO9VK1vSZowj0F5cIF4p0BK8SOeK1rhrm9334Q/ZgNNNdtVffsqG/uF7wkQyeerDn1Ty2QGwTqroY4l5AvgjWmiXl8k5flhiHVVLmaP7EPQRboUwuRqDz6tqiCCsO7/XVKJvrwz/ZHFc8REM9a6JDnIgy5XTpEMrfZDnQCegqi6ZvqKHOUJnscpYH9pNoRBJAbejXAHoliboGnc6i5egbtRW16lwAqIPfgQ5pQxaSNA+nak9gfebWGC4mUIhfJxh/M4Td2HpGAzF9M/AnCBFLIK0DYrAXUoHxkMsGaMjRw59BVJpTZ14M0llr0tbtKlr4RXl3fECBN8LK/b7vZoXPI00Ho4aw/LCP29CfaUC8aEtlNjnFA8roc37JNaFj01AhtOG3MIHspSO3+tNFDjOkZ9HAM5bRT5YlbN3X7PWvvX+D2o7VW3/8847rXTF5ZrCKrFKhGBh+VpeT9YuWsR4Sh0VNSp6vEZxozV+tYG2YwzQPukI5bi/bdCHJkXMcSF3h9HaRXaxUuOplltTU2NWVWOlasUEuSWWJei6QvlKlyq15/RY+ZXVVqpSqK62PK/7UTu4fW5dquTMKd1RUamySiuq3L+So/atslZ4tRJitQMvK+USV2StoOt8VviqV6zUvqtKeQrQV9Dq25GVcyU8+WkKWsUTOjx424GWEmOpVjlfQawSTQoFaPB86AiBdKla5XLJi4oJpRq1rbK8xpuTgBQZL2PjiytJH0WNm+ui+AWvKIcXoV14qX7Vlvcd6dO4+AojgTHkZQAKWcoDb5w+xdBqFeIhnot4UFI+7Xsf9KnYea3rvPOd8caxlo3N2xO/fGwqZ6zOB9UXzbicBfGf8TmvNe6C5iGvvA6NPZ9VuxgpbWtKoqWI58l8MQ7u4wiXF/r5AZjTqDbUV179EKAT/tJuqQZ+aExOZ8KfGo1NIbQB/6Bb18TwEhmp5CeA6tRWjVvYEnjwUNa4okby44ufdEMLvd9Dj4rR3bp2KkACKBUBRQWiixuVjBAV8NUCbUYLHheH8v5eFTg5+ijmfKXjuWEWTVZs35MyDgXshS8b4BNYYBXTqweukzwSHHhEVGqmtP81bsWwWICSBN9fQrsiTR12L1ggBR8T+1otLhnqqX33OFn9oVNo4UvqThkEq0Ht4whqjXcmccPf3zypQblRSggVpu+jgkchweHgS737PlM54SksDrHUnwJ1aZV9FzUSbjjQFrtN+vXdvLucnumFbpChuRyXv8Tokwmq78uRGfpW++CzkyhiDZkLxZwfFDRPyW5ZGPSr/SedeJ5a0qV7On5wB52UAbQIRnL45SH0AxZsJ+H3VJXP2Yfz1K12NuEnyCpT3XCGIH4wDlltThGLvB2URqC380/V1QwH/P78tQL89PlQKZjesYcgafQaQ/ASNFb/iVXeBqr5FE3MGXQFqVGaDbHXAB9CdRUVA+uJAkbFiZAX4fE1r0BUZL6QQH75j6JFhQZi3isJAHtovuhAf/QDxD57qvPyQTRpiDxGh0bwTRqsMU/YuIZ44Jq+VO78UZ6/wgRB4q8baJyuJ4r5AWbwWnfvshPzF1qRt0WIVl5Gzslwh9oj+OQqxgPw31tiNdCeJ6M9Uibf5krtiqlZR8V8SkVMVpN2YNkq27d0jdAR23BaToxoiHCFLmEPQAmqRm8FjVxKoZSWCeUHFzE+MooghJNq+EsroeUglqF1xhsOzAJ+4IjK/V/tisH+JQsfn2cLlIDfGifep28ZwRb/ubeZ0TxnO3hpe1Cw8KFxyN0sEBxblaRE3NpzmmlVeCwElIqjIUN9UxcMWNs5nciM0x045Qul5sXH7osh361lwco491jwgrBIYRQCr5TZ0mZWf0jhsHEfGmA89MsBE/W8X2X5i/aTLZJaVM9xXkgHgBoClLE20BZKH8YR2mLM4U6C8lgJ0rL0jAdvDxlOmpN3CcvVSBID5VaUAy6+Tnj//ff7t4JQCr4VxGtlv/vd79rGjRsdLyrY7wr19fWdr7GlH4BF5lVbYGgieP0wwVkx1W+ldA05ASmIMn3vyWmtll5nNQxzxVdlBELKRvCJQ0gLbbZt/nP2xNf+045u3Rom0IU8nJACPikKgUPJQlHqsMKxw7bj6aesKAFh/0WbKBHPbLsSteXtV3fdbb/47j0uSNRD9ijyLtS8Kz9W2iUh9OCC7QicbKLCQe0QLBYJDgbwFrD8BH+RATHtQCd0eFoCW1RA8JXHrR2JEgKjIFxXBldjrxTpgwNYVOQ3J37iVTgfTx639g2brGXpMsutXmPpBl6fgxhDnejyfSWCn4zD88Vz8R7FzSow1lRiEd2sqtNosbH8YX/cBVj9rOpkZHA2/eqX1nbosJoMePzyvSuv89GxVSQXXDFvBinlC3Z40wZ76B//yX75zf+2hl17VVfjZCxgwyfRRMztLfeYIFl0YEmhibMOlzWfoySI38wvvGLxjE+0MVao95CwwHkhucOFz7MyRUFS6BwpChiVpFwReacV76/iFwzzYhplKDtfD9y0aVOnZY51KWM/DUS3OgJlWNi4QJSXE1PG1wh5OQB9AsGKaoJUztcHwSmvQ6AdAvQRYlnoh7FAm1ZVTVpW5iBd4OCAxxLFWHHQV3cFcHF5efcQ1tJXasbMK/89yE3maS36kDV0IddEYnEHDupvE6ZNspo+tWpHwMqutrPiRZYnhprbLc3TQDxthDlmIVcnDYtW2oKvfdOaVqwTg8jUREpJvHGERMozY9xomzB+lEsIt02y/BwITzypXePJI562am20VGuT08ZPUXYocKuFMeE4I96QLTVMBEIlOdHTIrpaZAmb1Z4/uSXlEBkpxsdTUe2torUl0KI6PA2W4WkonpTqEB2teX/CibFleHIMZWZ6hKv/YJkTMWPR2/7CUnvw//sHe+zPP2OP/Mlf2MY7v2PW3JgIsJBUF4cxLCrMZQiMxp//5tRaNPjTcjyxxKBcoYiCIvti7RZNVRktdKte27p19qt/+9+2e8lCIYd6wc0WKsQqoFDuqRKIpNXVlUqcPGK71qy0lpMnxHfxAD6pbxYMaPZzOwJ19IEqEhzUj8nLSnUkT4q1wmvVVX1+/ibDy/icv/KWRBf3pJE/99wU/DBNK4Q/rspA49gUslFBygMQlQylQxmI4ykwONEqxjq8EZI3RMYv3s+cOdOuv/5640UA5PEbxHyHGOUeOnSovwGEt27QD9/1pS5toKS40P369XNlJVCXt07yGlm+f8ybOvghNhYPXtfD+7n4zjIu/Vve8hb/zjFA206r7zFEp5gdQvjr5EKSYsQhZpxilDyO+pVrbb+8jEqN9bxL5tiBHbut8WCDVQ4abOfPu9G/CN+wZpW179lnY4YOsRq6gncsDBKa0vEj1rD0Rdu4brPVVvWy2v4DLD1kgI2/4jKrbmq14tbdVrVjrxU2brLc5LFWHNjXKgcO0L5QlqC5xQ794pc2TCvvsIEDZY2bLNWrwtobjtmehUst09hiudOnrdDeYiNHDrUNG7fYyIvn2Pg/eIu2U9VhNH56LT5oPNyT1aikgKJPSnNi5XLbuny5L2KDhw23JtF73rx5Vj2wv7Xt3m2bxPMTDQdsuBaPsVddZ7Ujx9mhpUusQRZpYP/BtnXLNps8cZLVHzho2V51NuWt86xi7CgNXwuk+O7MTBSoIAHlZQC8fCE3eoztWLPGWpqbbOMDD9nU977HUmNqXfCxZAVunwh82gCEVoWFtpzVL1tpWxYtsaaj+23Q0AE27c03W/8pMyxTxa9F0CeLsDYOLIJ4C0wqzZ04aW3ice2ePVbcsNlKk6ea9elvqaHDtGKwB4ZYcUkRl0XJKQ/SYF57Dxtkw6ecZyeWr3KP4YDm5OjRI1athXXKm+ZBoSpRXR/MfdDpsChIdw6uXmn7ly32l+wNHTPWdi5ZZY0tBZv85uus/8zzpYUYEslKRr6h6gaS1YIYAFXekPMCPiiiD+dJuJ/QIzABUYlRXNznNWI6h124tri65IOHNeY2FLejuJeM1eaNHVjTt73tbW6p46tvKOMVOnyJ/5Of/KTxNpC77rrLv5jPq3lQ2GhpOfnmFTvf/OY3/Q0fKD40sCB87GMf85cFoPjgQgcvA2CxceERxBhnxV/5oiWyoJWep4/8bX+JKwIWIVgOVBzQOBtO2/KHHrW19//UhlRmbPinP2Mv3P+4ndq0x2omTbCxM6ZaVb8+tvGZRbby+3daRUujvX3URBs9YbKfLuYPH7RNX/l7e+aJR63Qd4AsZ7XlmvJWN2WiDRk5zLb+7CFbcNd3bEC+1R77j3+xE/feacPedKPd9Jd/af3GTrQTh4/Z49+911rWr7W+48faR6+8xKx/jR3buc0Wf/97UsAN1ot5bjltNVLyXGXatsuVHzxmpPWacZEmrlKDwvNAebSaswhLWEqyIju//d/2xI/vtVIVhzdFy7W2WXt1jf3ptMlWWLbAvv+P/2ytHQWrqcna6uZTNmLqg3b9x//ENj/xC1v56OPy5ipkQYq2WZa3tqrGcrVV4nOrXfTROzT2XupTsiGPgkUDISvInW6XFa0aNdCa+mWt78Xn2ZThQ23h04sst2CJVb9vBMxPrKgCt3dkuTK4n0yIFKpR/Pjhv/2b9dZCPqZfra1/Zp/tWbPB3vSFv7XB50/VcKVwTGJJyueWG/lVnjyF537yE9v+7W9b9eEGW/7Nu+yp7/3I+lw0y97z91+y6gumIOQuA3gCxZSsO+dJUJJsl6rFwCEaSO3WdfbCI7+27bv3W/+brrEp114rHqpmheqLj9hdeI0JwFvi8HTZ/ffZgR/db32knZVDB1lDQ7O1FKvUWLVdNGaoVcl7K/pDJWgv8pd2r8nvcbOasFXIl6xCrjfG3D9cVtXP2d6JhfISsJq8CRLryGtveL8V77Xi3VRY12nTprnl473OvNHj/e9/v+fFX/2/4oor/A0alPEiOl6Gt337drfEvMeKd03z6lis9cc//nFfAFBQ3oF19dVX+34Y+lgIoBGlZkHAyvImEOryRg7q8sK9+LK9TuV1hWYS8tZx4rht1N66Ugo/5qorrW7mBVr1Ai7YbpfFFI+VUakFYszQwZbavs1Ga8Ubc+vt1vu0rLKs7ce+/A9WdeE0y/SutXGTJ9toWZdTO7ba6Esutd7TLnDmNspSPPMf/2mz58yxd335n+yyt98uD1yWoa7CJl11iY2V1avLtVrDvj029y1vtstuv80mXnGVDZgwydJSptre/WzO7IussHuHnTh23Gbd8lYzTXafXr0tt3ufFQ4esLd85COWkwdz+dQpNv3WW2zz+vU28rI51nfcRI1FY5MVSsntZ4xZhFSTf0qWaMG//puNHj7Mbv3SF2zuhz7oPGyWK3fB5Zfbin//muVPNdq7Pv9Fu/bjf2ZD1N+G55+zAVLaS+dcZvtfXGm3vPVmmzphojXKIt16+9stf+yoycTYyEsutpQU2g+JMCe4hqkq5ycucWHTRtv8wAM2oF8vGzV9mu1a9KK1aFEfe8ubLcWDCSyfyDERdfhQYItTpQVyZm2tTRs1wsZqQSscP2YH9h+w8XOvtr6jxsrrkOhL6N1VZdzqFN+DFWCAFtRhzW12ePMWu+SGa+zqd7/TJl15hfWdNtWK8h64I0FfHJ+5W6vYdYStkLYY9UuW2aEVyy23f5+17jlg73j/B+zKv/yE2YA+CaHqT3XCVkOOPDJHkFczeeJkq12x3o4fPGjn3zTX3v6JT9qsm+bZiDmzrHqEPAApr99P9pVKdPALFdI9z+JPC68spq14+BHXyTm3vt1MXoyxiCLkPUG0vgDXuK68GfK2227zl9vhtgJYYSwtOCg5v8rAS95RNBQMS8u7s3ilLGVY4nhyjXLhBrMQoJBY4F69enXe0qJNLDYWecWKFV6fF9xFHOoDKC3vjcZCl98Ow+0HwjSyMheswt2qcEJLXryBBI4QHN8BiZNQ10w530ZcfpkdO3nKDi1cZCuWLbHJf3CD2WWzwn1PuutfLVdsgBXkivmbJfzJn6yEu0mLZZ31OU+458siTptpV/7Fn9stf/EJ6z16tNkVs6z/tVdYq6zzwKuutX7ve6/1nTNbq7Ha9cMZhdGDrb131g+Bwmqs/tLav9dUW3r4AEuNH2KNsgA1QwaLEaMsJ7670GqM/LJhkwTuuBag/OmTWsWlyB3tVtSCm2tssl7jx1mvC2eaTZxgF3/0o/auL37R6oYN1XakwbK9B9iAK65T/+dZr2mzbODQMZbhNZCyrB2ZKus1epKlxPemvtWWmTDCKnrjsovH0MfDKAglP1gmXJ+lAifqaTu4aYe17a23PSs32bKfPiLvo2T161dpQdomQdVeW9gc/VRJiVBGGuT0tSSremLtCvvVvd+x5x572JY//6w1HDpoVVqY2Uvi6nJ2wS/atx4/aQ3bdlvbCfbWak0y0UeL6lgZk8Y+ddb/mkus9x3vsAE3XGGFWm7ViLdiGYrXduS4Hd+y21oPH1f/vDgOU5zVVNda06HjdmTrLk1vzk7KAyj2UhmmltVG3khb02k7umuHNWtLUeJdvuKVZSUbdX0s26ef1YwbZbM+/F6za2Zb7bwrreq8CSqvUveupupey1digQNBAi6TEO5k6IOFSTHiQFGPEK0YSoSioIzveMc7/L3Qt956q7uruK6UozTgo+RYXCwnuOxHsZ68ExqLzd6VF+Ch3ChtbBvARUexwcc603fcd2Md+A2my2UdrrvuOnvXu97le+DYL4F2aI96ANdhz45qcoSDprEHDHms6EJJgAnsTDhjOMwq8UibJmD8lddYaeQoW3L/T0TfYZv1jlv8IQEmrv3IMTu6dJmd3rjNsqdy1rR9tx2c/4J1HDls1cPl0fSrs71bN1vDgoXWtPxF2/3CfNsp7yTXjtBlrU1Wvkl72IMb19vRZ+fbpvvut0OLFlpRQnh8+1arXzTfikfqrVZ71sPagx1ftdFs/xErnThhLSdPW/7IEasUrcflXdipk9ahfWKTFNDUfnP9IVt+9z32lNzhQ8uWSfDa5epVWHb4YKsbPcyOSdiOPv2sNcqi7lq02NYuXWw58WHU1Gn+Arr9v3hSZYutfoX2vY0nrDR6uObptBXbGu34UXkA7U1Wam+zVu0H23Pt1njilISYAy8tieIhusw7ruF+OtdhTdrr75VXktFcz5x7jV18+7ttjOa1TTzc9siTVjx0zK2Nu6LyFHyOCsyt5kYKUi8L2KC9+YzpM+zad79ba8tEq2prsdL+vVZSm/zeccfpZlv+/R/br/7XV237E0/L9Ua+kPS05SRzbVpkd8qDPPr8Atum/fd27WeLMjKcHltbq2158GH79d/+vS2794d+SIg1zJ1ustOH661a3s/5t77N+kr2V//wB7b18SesePS4aJY8tRds/8Il9uQ//ZOt0nayZX+9Bi/1auuwE7L6J48etGLjKT9TaVi/ydq1/4/a5z+36vIYvN6ou47A4uABmZVOemFSUajJ1UvBG0oA5YjWLEIspwwLyP4Wa4q1zGtF5MAp4qDoBF54x20p2iKgbFheytjr8ntKuNTcY6YNAHec8tgeSo5VZhEgTVlU3gi0W67IvFI2PLeKJQtKjFjBqa5aAqpE/oTqXqfyvGnWf+611lCdsfOvutjqpk+Vda5xCT22fpu9+I07besvF1ixNWXbHv6Fzf+P/2MnN2+0vjOn2LRbb7Ijh/fYov/8d1v61X+xF79zlx3btkPbNPhZYQPk6g4YMdTW/voXtuQr/2qrf/BDO755k5WaT9u6Jx63Bf/5dce35mZbeNf3bOOPH7SODVus+eAhOy2FaZKlqaruZZv27rWO4w2S16Lt2Sz8plZraThhRzZts0NrN1vrISk9iiDrXjNmtJ3/rputuaPNFt/5fVv81f+wRd/6th2Vd8P9yOnvf68NGDvGXvjB3fbi1/7Zdj79iA2fOt4G3HSt7azfI8OSt3VrFltby0lZeSnWtl2Wr+1lhw4etmNSQpQF/wYJq+RWEnOjeapfs852aRvWqO1G+rxJ1keu7wGeYqqps3XPLLHmzbuD1icTgS3iFozvomUN+44ZZ9X9+tvWdettHb9eefiILxANa9ZYR+NpP2kutLRJ0dfJWm+xU9v3Wbpdffmhmvaf48fbCCn/xvmLbfFX/t1W33W3HZZClVTHf1Rci1Hjps12cvlKO7Z2tWgRMdL/U1qM9+7ebtlJ422gtgt9L7rIWpvabb7qt2rBdjMsBW7VtuaotpunNqy3fGOr6kqQ2nO24oGf2fb92jaePiV+32sr77nPTu7ZrzGpcbwGdYIc8sI9Eer66tuPwEIFXUuG471h0n7nBLSZM2f6rxPGPXB3oIxbOpwK8+J2LCdKym0lFInTZqwhSsRBVLwFhMVl74ul5tCLU2IUGDeXAyms46WXXurfgsIFR7EJLAS40ry+NrrFWGW+s8whGW/QRCknTpzofZIH3VhnoFxxXZHFFB6c4AZ+TlZr4wMPWnWuTXvgq6xuxoViGjfzsREoM4rv1TvB2VSZtTp5F/207+LUsWac3EftPwDW94z2iIMummXDr77G+l8y2/pddKENkadRO2ywDdb+uK/2ijUjRlnd+Ak2Xnv989/8ZpUNlXWvtAp5NoOkLLUq6z9jpp037yYbxa9ADhnqr4ntpa3KyMsut+FXXWP9Zs22QRfOsj6TJlp29AgbfNFsGzL7YuurvnorDGD/LQEdqbz+ctErxMs+Q4fYyAsvtHHXXO2n2xxqZeTR9B03xvfa0FWjRXT03KvsoltusTrNV9WYsTZUW4eakSOsduJYGy56pr/9Nhs0/ULrqKmxAbLQg+ZcaoPUX9206dbvYu25FfpdeJENPn+KVffp7YKIPLrNgKkIqzJ6jR5lwy6/1AbOuUT7vxH+7ZphkoMRl19h/SVHFQNEI49KuYuoNmhEwLPLtdom9NK4qsST2unTbcR1N9iQK66yfjMvst4TxltaspmW1zRw2DAbMWOGjdWYarVfDl+QUBviR3+Nr4/aGDBthubiBpt04w1Ww3YQbw1+9+1ng6dOsalvepPVjWKfWckdQavS/I+44nIbLFe8auhw6z99pg259BIbLH5X9As0V2kvPViLxKSrrxWPpmubo0VeXfP7FUO1VRkuWvtrDgeKTwPPn2yVoofFDhE7Q/DwBt0jxAtRxCHWwf226uGHXa7DHnh0OL/h20icBHPSW/5WShAJuLYoJu4q1jK6q+x3UbxhYhZKiNUkD2VDOVFEylBWrCcKTHvkofgEXiDA5KLsnGpTjhsO4Eaj/LSF4lNOHifPvFIWpcWKo9Dk8YranoGvhckV78jLvd1j99/xIeurvcpVf/15G/yBD8gIVjr/4BNuH7bZUyg1lwL2yCV5BAXeOCE+pKjDXgQ0Di1Eh1s3/TMPfvAivNCwMlVelAspxllKQpbyMhVSRqS2S5QL0lIuFyaActVB+CMtfFPFfyzb99mkWWK0+PhJM8IAAQoIhsrZE/K0UEoeS0oTHtoJyxVuKbdLyPRyuZdd5cIQTdS3bEZ6rwWLNn2sWI6gmMwZAL6XE8j3XC6TcRKcR+G2JE8UQS+00R5jSrFl8TZURxDbcIBG4ZXy8rh4G0el6IWPNEm512fM7IOxnMolj1tB5EMzoLgoAwReWvPoyk15Qidz4bQyPuYh1mWeAcfTPw9j6NJxCLFf+EW/nGOAi+yweIGftOttgkMMn0E7AxhRErC0baJ3+TK78yMf8V+U/FN5YiUtBn7yfTYFBpgcn4DkujzdHeJkluOUx+QDxExg2J/Cm+Cex8Mn0uX77/I80sQxDwCP61j/pQADxVj2hNv32oN/dIf1lnt6xV9/Tgr8Qd8TcjcJkVVj+pciebfhCRquGQZ9EzrHBA7FgcQzIEERxAvqJpcCF3YvIhNhVxyGo0ntrCzoqnRGfXUQeROaCmnvN+IlRPSEB47ToIF3tku5hMVp8WTXNRCa46OrDnll1Ts/OwHEhI4uSFpVdmcfZCTpl4NAf6gQ8LuojF11jknQ2WZZ05EnPpedlUPUyS9BV7k+yuqT6GzDPwXCfclYEhxX0DPqC7xJR3wJJLXcoHCd1j46vWKZfeujf8T6aZ+487tS4Cslu1nf7QVCuwF55YIS0z0FoCe8CChYeXlUXgCFLFe+WJZP9sARHzxi2or75/LyswIrGI/Nxb2DhhxezakyHkuTdSbQXDISlakPhfDGB+gOyhEXFu/bFa1rrOUhthRA7fnYQwiPSCba6ni+dKheCAEvgpd46Gqf/ECPp0km6YAboYvfZ+KFNnzfJbq4JijheVx60mmM+OQA5W36pXDDX6gVIY63J0iwHUXtKw70KRc+xXAWcEzvPNDreU5PV/8xTZaPMxlLJ3hXssSaiyKLu5eFQJ0QQnv0wp9X6gyh3HESPK+rT89P0g6e1p+SnSH5Oxt4CXIbNT/ph1tdoYEotxJDcH9bgDiUJ0JUTPJjHK/LoTw/1ueaQBuUleeRRqmJoyJTj7KoyJRFa0z+2QC2hm8cyaKm+OpAPMiiUPW8LkE5uDoOOM3qU2Rx+6ZDzCLkFVDsGPcUKAuhK489eHg7hPrJhj25P1Di+CH4t3A8v6teDF1thnY765Rdd6bVDqF7/TPGoPIij+Z5fyFwHehUHcpjGnxvozyQF2jl2fGXBvIlG2onPCLZHS+UdwZTHiFJg6/eewyUv4RetXkmjck4dR1weDQ20k0/kjO83iSENkI4c4yhfuBDLO9quzOt+uX87byGj7Sh6/I/1QxjJHQbXwxIoMj0J9M6v9Mt+eQLGWxD/D63rl0DzqYAKBcQFQyIVhBAgaLSRWWKSh2B6/K8cmsZlRLorpDUIUTrHPuKdWI9cMrpewkwWXCCphX4uhfPmFLbn9sVE1joQpCyg+SnfBxu0S452G3UGmDs1O4eh2twaCXU1BiSspAPkA5loixJdw9nth3bOzMOuOV55enu7YQ1nx4DXoB43ZVXThd/YQRnjiv2FUNX/pk4sYUzcbpfA7Gt0E+87il2wfZ0CLEPPkM+EOuEdHlfrjydZSHEP67PpKu8nVh+ZlnsM+Z3xUBXnTTyrUziUOfMcZ0ZC4Tr7ShJ0Cpg/poePEl8a0dLFPjloFyhgHKFQbFIR+XqrogE8gixjdgOygku6aiQsU5sF4j4QE9tl6e7B7eqPBDgLz9j8oIA+NMtHcrDwue1KnKgQx5PjytklZfpEIMUMvmSAnG45it+IS+GrrLOmHoKXbhqK1cIISnzcpU5jq7THeIf+Y7fPZwtv6dwJm5WQ8wqj7gioQcaIh0p9RvHGXC10FLXy0Nez/2rDZVxr7Sn4K/CVeipLKW68TpN0FQEXOhR7HT1HCLtkf5AI/Ql/GQMyos0ltPexWu1lcxFGHM5frzuKd09L/YZAnl+7TSFsZ057t8mIIciioNKDsWQSymtf8tKhiW4Di71lvrABz7g78T6xCc+4Q+aoxAu+ILuygHE8lgGxHR53e5QjhPTAMpZrpSUl+cB5JMm7gn/NwOrc96qxYTirkO29CtfsUGnT9msd7zdel19rSRa7aoJf+0JsT78HhunmM4lBT9xjosI/SmUd5uMpQtUyKKT3L5wKEehrrdHO+UN9QBer3vll4My/Nh+J430qciT3Wj4Td3E+uW4jKFsnl4RwB9vq7yjMhp/E/RU7PQpMFee7vxIQJW616M45pXP4Ut4BnQihugMnG5lDjHv1YDakduN94hw+qK2Y7v98htft9ZMpX3su3eZXXGJ8eYS/3VCnk3mSau47wS6K9EbFyQopQ7rVyjZkIbTNuhAvY0+fdp6V9daoba3vGWYzn5Gi5QC3glfMeNX7gB/FI+Vr3O2zxYDrwUOMXCucIiBV4GDgL0cTo8xkQTz5XDOUsYi+3I4Z8bAucIhBl79+AC+PonHyM/E0FI2324nmxqtZcBg+9Pvf9fskov9FUKpr3/96yW+pIA1i+HlrdobCeTuaPNRlcvZgOacjWxvt2FtzXJx2A2F/TgPoSMWvrVQgPEV8b6f3xnuzuCeYuC1wCEGzhUOMfDKceDZy+H0HAOvHgeBfjmcM2PgXOEQA+H67LIDnK1M+115N6ihnHzJpNxmWeRWyfLACy60eZ/9rJVGj5A3rW3mgQMHSvzifV4+d7nico0yv/EhLEjsKyoUago5q8w1izMaG69OiccALF4MH1dazAsP0jN+yl/K4JfGwGuBQwycKxxi4JXjhLcm/macnmPgVeJgYF4O5yUxcK5wiIFw7e9Eexmcl8S+hVNKHnCRQyu8QL7+qrJ+w0b503ml2krnf0quconDJ06H4yEU178fyhsAY8puIJzmcTiQ0wXjwwITVBjH6/tdroXnFajoJf8PXmt4NXx9o4rlKxkrY0QG2bq5QVHa7yfpMq+0DHIR68tiVq7A0YX+/dj7doG7MfADRuBSay0LDNWYfYVU4IvbZJF2y8ISmCiwl5D3m2KgKy+09ptxzhYHzN+ME+C1wCHm6uVxuud17vGcsT3j9Bxz2ZML3g2nW16X5T07Ts8xcK5wiIGuvJ7HCXTPC3G4aYku8qMEJaTVt4G0lMVNFO/4olOmWLT/H2jLG4a1WKLwAAAAAElFTkSuQmCC;" vertex="1" parent="1">
          <mxGeometry x="354.5" y="380" width="184.5" height="43.05" as="geometry" />
        </mxCell>
        <mxCell id="2zejV1CqlXeHGlocq-Ae-37" value="后续请求victim.com时&lt;br&gt;FDNS就会回复a.t.k.r" style="rounded=0;whiteSpace=wrap;html=1;" vertex="1" parent="1">
          <mxGeometry x="480" y="440" width="200" height="60" as="geometry" />
        </mxCell>
      </root>
    </mxGraphModel>
  </diagram>
</mxfile>
